<svg width="68" height="68" viewBox="0 0 68 68" fill="none" xmlns="http://www.w3.org/2000/svg">
<g filter="url(#filter0_d_1063_11270)">
<rect x="4" width="60" height="60" rx="9" fill="#850F16"/>
</g>
<g clip-path="url(#clip0_1063_11270)">
<path d="M34.9732 18.9748C34.8541 18.9766 34.736 18.99 34.6196 19.0151C34.5028 19.0401 34.3895 19.0764 34.2799 19.1234C34.1707 19.1708 34.0664 19.2281 33.9683 19.2957C33.8699 19.3638 33.7795 19.4403 33.6962 19.5258C33.613 19.6113 33.5391 19.7039 33.4742 19.8042C33.4093 19.9044 33.3547 20.0101 33.3104 20.1206C33.2665 20.2316 33.2334 20.3458 33.2119 20.463C33.1904 20.5803 33.1801 20.6989 33.1819 20.818V28.0909H25.909C25.849 28.09 25.7891 28.0922 25.7291 28.0972C25.6691 28.1021 25.61 28.1101 25.5509 28.1213C25.4919 28.1321 25.4332 28.1459 25.3755 28.163C25.3177 28.1795 25.2614 28.1992 25.2054 28.2216C25.1495 28.244 25.0953 28.269 25.042 28.2972C24.9888 28.325 24.9368 28.3554 24.8867 28.3881C24.8361 28.4212 24.7878 28.4566 24.7413 28.4942C24.6943 28.5318 24.6495 28.5721 24.607 28.6141C24.564 28.6562 24.5233 28.7005 24.4848 28.7466C24.4467 28.7932 24.4105 28.8411 24.3769 28.8907C24.3433 28.9404 24.312 28.9919 24.2834 29.0447C24.2552 29.0975 24.2292 29.1517 24.2059 29.2072C24.1827 29.2627 24.1625 29.3191 24.1446 29.3764C24.1272 29.4341 24.1124 29.4923 24.1007 29.5509C24.0887 29.61 24.0797 29.6695 24.0739 29.7291C24.0681 29.7891 24.0649 29.849 24.0649 29.909C24.0649 29.969 24.0681 30.029 24.0739 30.0889C24.0797 30.1485 24.0887 30.208 24.1007 30.2666C24.1124 30.3257 24.1272 30.3839 24.1446 30.4412C24.1625 30.4989 24.1827 30.5553 24.2059 30.6108C24.2292 30.6663 24.2552 30.7205 24.2834 30.7733C24.312 30.8261 24.3433 30.8776 24.3769 30.9273C24.4105 30.977 24.4467 31.0248 24.4848 31.0714C24.5233 31.1175 24.564 31.1618 24.607 31.2039C24.6495 31.246 24.6943 31.2858 24.7413 31.3238C24.7878 31.3614 24.8361 31.3968 24.8867 31.4299C24.9368 31.4626 24.9888 31.493 25.042 31.5208C25.0953 31.5485 25.1495 31.5736 25.2054 31.596C25.2614 31.6188 25.3177 31.638 25.3755 31.6551C25.4332 31.6716 25.4919 31.6855 25.5509 31.6967C25.61 31.7074 25.6691 31.7155 25.7291 31.7209C25.7891 31.7258 25.849 31.728 25.909 31.7271H33.1819V39C33.181 39.06 33.1833 39.12 33.1882 39.18C33.1931 39.2395 33.2012 39.299 33.2124 39.3581C33.2236 39.4172 33.2374 39.4758 33.254 39.5336C33.271 39.5913 33.2902 39.6477 33.3126 39.7036C33.335 39.7591 33.3605 39.8137 33.3883 39.867C33.416 39.9203 33.4465 39.9722 33.4791 40.0223C33.5122 40.0725 33.5476 40.1212 33.5852 40.1678C33.6233 40.2148 33.6631 40.2596 33.7052 40.3021C33.7472 40.345 33.7915 40.3858 33.8376 40.4238C33.8842 40.4623 33.9321 40.4986 33.9818 40.5321C34.0315 40.5657 34.0829 40.597 34.1357 40.6252C34.1886 40.6539 34.2427 40.6798 34.2982 40.7031C34.3537 40.7264 34.4101 40.7465 34.4674 40.7644C34.5251 40.7819 34.5833 40.7967 34.642 40.8083C34.701 40.8204 34.7606 40.8289 34.8201 40.8352C34.8801 40.841 34.9401 40.8441 35 40.8441C35.06 40.8441 35.12 40.841 35.18 40.8352C35.2395 40.8289 35.299 40.8204 35.3581 40.8083C35.4167 40.7967 35.4749 40.7819 35.5327 40.7644C35.59 40.7465 35.6464 40.7264 35.7019 40.7031C35.7574 40.6798 35.8115 40.6539 35.8643 40.6252C35.9172 40.597 35.9686 40.5657 36.0183 40.5321C36.068 40.4986 36.1159 40.4623 36.1624 40.4238C36.2085 40.3858 36.2528 40.345 36.2949 40.3021C36.337 40.2596 36.3768 40.2148 36.4149 40.1678C36.4525 40.1212 36.4878 40.0725 36.521 40.0223C36.5536 39.9722 36.5841 39.9203 36.6118 39.867C36.6396 39.8137 36.6651 39.7591 36.6875 39.7036C36.7098 39.6477 36.7291 39.5913 36.7461 39.5336C36.7627 39.4758 36.7765 39.4172 36.7877 39.3581C36.7989 39.299 36.807 39.2395 36.8119 39.18C36.8168 39.12 36.8191 39.06 36.8182 39V31.7271H44.0911C44.151 31.728 44.211 31.7258 44.271 31.7209C44.331 31.7155 44.3901 31.7074 44.4491 31.6967C44.5082 31.6855 44.5669 31.6716 44.6246 31.6551C44.6823 31.638 44.7387 31.6188 44.7947 31.596C44.8506 31.5736 44.9048 31.5485 44.958 31.5208C45.0113 31.493 45.0632 31.4626 45.1134 31.4299C45.1639 31.3968 45.2123 31.3614 45.2588 31.3238C45.3058 31.2858 45.3506 31.246 45.3931 31.2039C45.4361 31.1618 45.4768 31.1175 45.5153 31.0714C45.5533 31.0248 45.5896 30.977 45.6232 30.9273C45.6567 30.8776 45.6881 30.8261 45.7167 30.7733C45.7449 30.7205 45.7709 30.6663 45.7941 30.6108C45.8174 30.5553 45.8376 30.4989 45.8555 30.4412C45.8729 30.3839 45.8877 30.3257 45.8993 30.2666C45.9114 30.208 45.9204 30.1485 45.9262 30.0889C45.932 30.029 45.9351 29.969 45.9351 29.909C45.9351 29.849 45.932 29.7891 45.9262 29.7291C45.9204 29.6695 45.9114 29.61 45.8993 29.5509C45.8877 29.4923 45.8729 29.4341 45.8555 29.3764C45.8376 29.3191 45.8174 29.2627 45.7941 29.2072C45.7709 29.1517 45.7449 29.0975 45.7167 29.0447C45.6881 28.9919 45.6567 28.9404 45.6232 28.8907C45.5896 28.8411 45.5533 28.7932 45.5153 28.7466C45.4768 28.7005 45.4361 28.6562 45.3931 28.6141C45.3506 28.5721 45.3058 28.5318 45.2588 28.4942C45.2123 28.4566 45.1639 28.4212 45.1134 28.3881C45.0632 28.3554 45.0113 28.325 44.958 28.2972C44.9048 28.269 44.8506 28.244 44.7947 28.2216C44.7387 28.1992 44.6823 28.1795 44.6246 28.163C44.5669 28.1459 44.5082 28.1321 44.4491 28.1213C44.3901 28.1101 44.331 28.1021 44.271 28.0972C44.211 28.0922 44.151 28.09 44.0911 28.0909H36.8182V20.818C36.8191 20.7576 36.8168 20.6971 36.8114 20.6367C36.8065 20.5763 36.798 20.5163 36.7868 20.4563C36.7756 20.3968 36.7618 20.3382 36.7443 20.28C36.7273 20.2218 36.7072 20.1645 36.6843 20.1085C36.6615 20.0522 36.636 19.9975 36.6078 19.9438C36.5796 19.8901 36.5487 19.8382 36.5151 19.7876C36.4816 19.737 36.4453 19.6883 36.4073 19.6413C36.3688 19.5947 36.328 19.5495 36.2851 19.507C36.2421 19.464 36.1973 19.4233 36.1504 19.3848C36.1034 19.3467 36.0546 19.3105 36.004 19.2774C35.9534 19.2438 35.9015 19.2129 35.8478 19.1847C35.7941 19.1565 35.7395 19.131 35.6831 19.1082C35.6271 19.0854 35.5698 19.0652 35.5116 19.0482C35.4535 19.0312 35.3944 19.0169 35.3348 19.0061C35.2753 18.9949 35.2153 18.9864 35.1549 18.9815C35.0945 18.9761 35.0341 18.9739 34.9732 18.9748Z" fill="white"/>
</g>
<defs>
<filter id="filter0_d_1063_11270" x="0" y="0" width="68" height="68" filterUnits="userSpaceOnUse" color-interpolation-filters="sRGB">
<feFlood flood-opacity="0" result="BackgroundImageFix"/>
<feColorMatrix in="SourceAlpha" type="matrix" values="0 0 0 0 0 0 0 0 0 0 0 0 0 0 0 0 0 0 127 0" result="hardAlpha"/>
<feOffset dy="4"/>
<feGaussianBlur stdDeviation="2"/>
<feComposite in2="hardAlpha" operator="out"/>
<feColorMatrix type="matrix" values="0 0 0 0 0 0 0 0 0 0 0 0 0 0 0 0 0 0 0.25 0"/>
<feBlend mode="normal" in2="BackgroundImageFix" result="effect1_dropShadow_1063_11270"/>
<feBlend mode="normal" in="SourceGraphic" in2="effect1_dropShadow_1063_11270" result="shape"/>
</filter>
<clipPath id="clip0_1063_11270">
<rect width="22" height="22" fill="white" transform="translate(24 19)"/>
</clipPath>
</defs>
</svg>
