<svg width="45" height="45" viewBox="0 0 45 45" fill="none" xmlns="http://www.w3.org/2000/svg">
<g clip-path="url(#clip0_1284_1926)">
<mask id="mask0_1284_1926" style="mask-type:luminance" maskUnits="userSpaceOnUse" x="0" y="0" width="45" height="44">
<path d="M0.9375 0H44.7656V43.7695H0.9375V0Z" fill="white"/>
</mask>
<g mask="url(#mask0_1284_1926)">
<path d="M32.7888 20.8969C32.6085 20.5124 32.44 20.1224 32.2725 19.7498C33.8774 18.5275 34.326 17.2302 33.6824 15.7855C33.0397 14.3418 31.7543 13.8327 29.6468 14.2218C29.1441 13.1598 28.6342 12.0877 28.127 11.0147C27.1327 8.90718 26.1568 6.79048 25.1405 4.69392C25.0847 4.57674 25.0188 4.46413 24.9437 4.35793C24.8677 4.25172 24.7844 4.15285 24.6919 4.0613C24.5995 3.96883 24.4997 3.88643 24.3925 3.81136C24.2854 3.7372 24.1728 3.6722 24.0547 3.61726C23.9366 3.56233 23.8139 3.51747 23.6885 3.4836C23.5622 3.44972 23.4349 3.42683 23.3049 3.41493C23.1749 3.40303 23.0449 3.40212 22.9149 3.4131C22.7849 3.42317 22.6567 3.44515 22.5304 3.4781C22.404 3.51106 22.2813 3.55409 22.1632 3.60811C22.0442 3.66213 21.9307 3.7253 21.8236 3.79945C21.7155 3.8727 21.6148 3.95509 21.5215 4.04573C21.4281 4.13637 21.3429 4.23525 21.2669 4.34053C21.1909 4.44582 21.1241 4.55751 21.0664 4.6747C21.0097 4.79189 20.963 4.91274 20.9273 5.03816C20.8916 5.16267 20.8659 5.29085 20.8522 5.41994C20.8385 5.54903 20.8357 5.67903 20.844 5.80904C21.1818 7.97975 20.486 9.88588 19.3919 11.6767C18.5661 13.0142 17.5838 14.2255 16.4449 15.3095C15.3059 16.3934 14.0471 17.3154 12.6692 18.0753C10.1735 19.487 7.54409 20.6763 4.95407 21.926C1.67465 23.5016 0.186001 26.8863 1.31942 30.1804C1.38809 30.3745 1.46591 30.5658 1.55288 30.7535C1.63986 30.9403 1.73599 31.1234 1.83944 31.3019C1.94381 31.4804 2.05642 31.6535 2.17727 31.821C2.29812 31.9885 2.4263 32.1506 2.56179 32.3062C2.69729 32.4619 2.84103 32.6111 2.99026 32.7539C3.14041 32.8958 3.29696 33.0304 3.45993 33.1586C3.62198 33.2858 3.79043 33.4058 3.96438 33.5175C4.13833 33.6292 4.31778 33.7326 4.5018 33.8269C4.6849 33.9221 4.87259 34.0082 5.06485 34.0851C5.25711 34.1629 5.45211 34.2307 5.64987 34.2893C5.84854 34.3488 6.04904 34.3982 6.25229 34.4376C6.45553 34.4779 6.6597 34.5081 6.86569 34.5291C7.07168 34.5502 7.27768 34.5612 7.48459 34.5621C7.69149 34.5639 7.8984 34.5557 8.1044 34.5374C8.31039 34.5191 8.51547 34.4916 8.71872 34.4541C8.92196 34.4165 9.12338 34.3698 9.32205 34.3131C9.74411 34.184 9.95193 34.3305 10.1662 34.6774C10.7942 35.6918 11.4571 36.6861 12.1043 37.6886C13.1206 39.2615 14.1277 40.8399 15.1549 42.4045C15.2885 42.6288 15.4543 42.8275 15.6511 42.9996C15.847 43.1717 16.0658 43.31 16.3057 43.4143C16.5465 43.5178 16.7964 43.5819 17.0573 43.6066C17.3174 43.6322 17.5755 43.6167 17.831 43.5599C17.9546 43.5471 18.0754 43.5251 18.1944 43.4931C18.3144 43.4601 18.4297 43.4189 18.5423 43.3676C18.6549 43.3154 18.7621 43.2559 18.8646 43.1873C18.9671 43.1177 19.0633 43.0408 19.153 42.9566C19.2427 42.8714 19.3251 42.7808 19.4002 42.6819C19.4752 42.5839 19.5421 42.4805 19.5998 42.3715C19.6574 42.2626 19.706 42.15 19.7453 42.0328C19.7847 41.9156 19.814 41.7966 19.8341 41.6748C19.9239 40.9479 19.8231 40.2475 19.5329 39.5746C18.6952 37.6154 17.7403 35.7074 16.834 33.7839C19.1997 32.4628 19.4267 32.0783 18.9333 30.2591C19.0157 30.1959 19.1045 30.1438 19.2006 30.1035C20.5629 29.6613 21.9563 29.3692 23.3818 29.2282C24.8073 29.0863 26.2309 29.0991 27.6537 29.2648C28.636 29.3582 29.5772 29.6082 30.4762 30.0156C31.3753 30.423 32.1837 30.9659 32.9005 31.6434C33.8857 32.6349 35.063 32.807 36.0408 32.114C36.9994 31.4346 37.2227 30.3095 36.6368 29.0607C35.3542 26.3388 34.0724 23.6179 32.7888 20.8969ZM32.2011 16.3779C32.5453 17.0572 32.3595 17.6349 31.5364 18.2282L30.3792 15.7791C31.3039 15.5264 31.8724 15.7352 32.2011 16.3779ZM8.5585 32.8235C8.27743 32.8949 7.9927 32.9398 7.7034 32.959C7.41409 32.9782 7.12478 32.9718 6.83731 32.9389C6.54892 32.9059 6.26693 32.8464 5.98953 32.7622C5.71212 32.6779 5.44479 32.569 5.18753 32.4353C4.93026 32.3026 4.68673 32.1469 4.45785 31.9693C4.22897 31.7917 4.0184 31.5958 3.82522 31.3797C3.63205 31.1637 3.46084 30.932 3.30978 30.6848C3.15872 30.4376 3.03146 30.1795 2.92801 29.9085C2.81356 29.6439 2.72201 29.371 2.65518 29.09C2.58834 28.8089 2.54715 28.5242 2.53158 28.2358C2.51602 27.9474 2.52517 27.6599 2.56088 27.3734C2.59658 27.0859 2.65701 26.8048 2.74215 26.5293C2.8273 26.2528 2.93716 25.9863 3.06991 25.73C3.20266 25.4736 3.35739 25.231 3.53408 25.0022C3.70987 24.7724 3.90487 24.5609 4.11911 24.3668C4.33334 24.1718 4.56314 23.9978 4.80758 23.8449C6.21841 23.0045 7.75741 22.3783 9.32113 21.6138C10.7631 24.6716 12.1666 27.6444 13.6241 30.7306C11.9752 31.5253 10.287 32.2229 8.5585 32.8235ZM18.1221 40.2695C18.4911 41.0541 18.3977 41.6373 17.8236 41.8918C17.158 42.1866 16.7039 41.8854 16.3341 41.3086C14.6889 38.7341 13.0217 36.1716 11.3179 33.534L14.243 32.1524C14.3602 32.3575 14.4756 32.5314 14.5634 32.7191C15.7518 35.2341 16.9383 37.7509 18.1221 40.2695ZM16.1253 32.2183C16.0118 31.9922 15.891 31.7652 15.728 31.4411L17.2496 30.7672C17.7019 31.6379 17.5957 31.7652 16.1253 32.2183ZM35.3468 30.5338C35.2946 30.6574 35.2086 30.7498 35.0887 30.8121C34.7545 30.7334 34.3132 30.7645 34.1035 30.5594C33.3107 29.8059 32.4208 29.1916 31.4348 28.7164C30.4488 28.2422 29.4133 27.93 28.3284 27.7799C24.5848 27.1573 20.9767 27.7863 17.4437 29.0158C16.6554 29.2905 15.8864 29.6192 15.024 29.9561C13.593 26.9193 12.2005 23.9639 10.883 21.1725C12.9091 19.7635 14.9553 18.5184 16.7946 17.0206C19.4478 14.8581 21.5178 12.2159 22.2813 8.77626C22.4416 7.9239 22.5075 7.06514 22.4791 6.19814C22.4791 5.72481 22.3189 5.22035 22.8975 5.0345C23.5539 4.82484 23.7059 5.39339 23.9119 5.82735C26.0377 10.3382 28.1627 14.8462 30.2876 19.3533C31.8697 22.7097 33.4526 26.0651 35.0365 29.4205C35.0932 29.545 35.1353 29.6237 35.2003 29.7876C35.4146 30.3287 35.3661 30.4834 35.3468 30.5347V30.5338ZM29.6733 3.76466C29.601 3.60994 29.5726 3.44789 29.5882 3.2776C29.6028 3.10823 29.6605 2.95351 29.7585 2.81343C30.2895 2.02058 30.8287 1.22774 31.3753 0.453202C31.4705 0.310379 31.5941 0.1996 31.7451 0.119034C31.8971 0.0384676 32.0592 -0.000899923 32.2304 1.56043e-05C32.4089 0.00642431 32.5755 0.0558627 32.7284 0.147415C32.8822 0.238968 33.004 0.361649 33.0946 0.515458L33.1587 0.610672L33.1313 0.724198C33.123 0.784622 33.1139 0.845963 33.1075 0.911881C33.0965 1.10597 33.0434 1.28816 32.9482 1.45845C32.4098 2.28792 31.8367 3.11281 31.2929 3.88185C31.1958 4.0265 31.0686 4.13728 30.912 4.21419C30.76 4.28651 30.6007 4.3149 30.4332 4.29933C30.2657 4.28377 30.1137 4.22609 29.9773 4.12813C29.8445 4.03291 29.7429 3.91298 29.6715 3.76558L29.6733 3.76466ZM44.4499 27.8476L44.3822 27.9392L44.2686 27.9511C44.2082 27.963 44.1478 27.9758 44.0837 27.9913C43.8979 28.0454 43.7083 28.0564 43.517 28.0243C42.552 27.7936 41.5825 27.5308 40.6761 27.2754C40.5067 27.2324 40.3593 27.15 40.2339 27.0282C40.1158 26.9092 40.0362 26.7682 39.995 26.6062C39.9538 26.4441 39.9574 26.2821 40.005 26.1218C40.0215 26.0623 40.0435 26.0056 40.0719 25.9506C40.0993 25.8957 40.1323 25.8435 40.1707 25.7959C40.2092 25.7474 40.2513 25.7025 40.2989 25.6632C40.3456 25.6229 40.396 25.5881 40.45 25.5579C40.5031 25.5277 40.5598 25.5029 40.6184 25.4837C40.677 25.4645 40.7375 25.4517 40.7988 25.4444C40.8601 25.437 40.9215 25.4361 40.9828 25.4407C41.0442 25.4453 41.1046 25.4563 41.1641 25.4727C42.0915 25.708 43.018 25.9506 43.9336 26.2061C44.1002 26.2482 44.2467 26.3278 44.3739 26.4441C44.5003 26.5604 44.5918 26.6995 44.6477 26.8616C44.7017 27.0319 44.7108 27.2049 44.6751 27.3798C44.6404 27.5546 44.5653 27.7103 44.4499 27.8476ZM40.9727 12.5903C40.1387 13.1232 39.2754 13.6405 38.4633 14.1193C38.315 14.2108 38.1529 14.2594 37.9781 14.2648C37.8096 14.2685 37.653 14.2282 37.5066 14.1449C37.3601 14.0616 37.2456 13.9472 37.1623 13.8016C37.1312 13.7476 37.1056 13.6917 37.0854 13.6331C37.0653 13.5755 37.0506 13.515 37.0424 13.4537C37.0341 13.3923 37.0314 13.331 37.0351 13.2697C37.0387 13.2074 37.0488 13.147 37.0644 13.0875C37.0808 13.0271 37.1019 12.9694 37.1294 12.9144C37.1568 12.8586 37.1889 12.8064 37.2264 12.757C37.2639 12.7075 37.3061 12.6627 37.3528 12.6224C37.3994 12.5812 37.4489 12.5455 37.5029 12.5144C38.315 12.0099 39.1325 11.51 39.951 11.0285C40.0966 10.9378 40.2559 10.8866 40.4271 10.8756C40.5992 10.8655 40.7631 10.8957 40.9196 10.968C41.0799 11.0477 41.2108 11.1612 41.3124 11.3077C41.4149 11.4542 41.4754 11.6162 41.4937 11.7938L41.5129 11.9074L41.4406 11.9998C41.4085 12.0511 41.3756 12.1024 41.3426 12.16C41.252 12.3313 41.1284 12.475 40.9727 12.5903Z" fill="#850F16"/>
</g>
</g>
<defs>
<clipPath id="clip0_1284_1926">
<rect width="45" height="45" fill="white"/>
</clipPath>
</defs>
</svg>
