<svg width="67" height="13" viewBox="0 0 67 13" fill="none" xmlns="http://www.w3.org/2000/svg">
<path d="M10.2044 4.91016H7.87127C7.82866 4.60831 7.74165 4.3402 7.61026 4.10582C7.47887 3.8679 7.31019 3.66548 7.10423 3.49858C6.89826 3.33168 6.66033 3.20383 6.39045 3.11506C6.12411 3.02628 5.83469 2.98189 5.52219 2.98189C4.95756 2.98189 4.46573 3.12216 4.0467 3.4027C3.62766 3.67969 3.30273 4.08452 3.07191 4.61719C2.84109 5.14631 2.72567 5.78906 2.72567 6.54545C2.72567 7.32315 2.84109 7.97656 3.07191 8.50568C3.30629 9.0348 3.63299 9.4343 4.05202 9.70419C4.47106 9.97408 4.95579 10.109 5.50621 10.109C5.81516 10.109 6.10103 10.0682 6.36381 9.98651C6.63015 9.90483 6.8663 9.78587 7.07227 9.62962C7.27823 9.46982 7.44869 9.27628 7.58363 9.04901C7.72212 8.82173 7.818 8.5625 7.87127 8.27131L10.2044 8.28196C10.144 8.78267 9.99308 9.26562 9.7516 9.73082C9.51367 10.1925 9.19229 10.6062 8.78746 10.9719C8.38619 11.3342 7.90678 11.6218 7.34925 11.8349C6.79528 12.0444 6.1685 12.1491 5.46893 12.1491C4.49592 12.1491 3.62589 11.929 2.85884 11.4886C2.09535 11.0483 1.49165 10.4109 1.04776 9.57635C0.607422 8.74183 0.387251 7.73153 0.387251 6.54545C0.387251 5.35582 0.610973 4.34375 1.05842 3.50923C1.50586 2.67472 2.1131 2.03906 2.88015 1.60227C3.64719 1.16193 4.51012 0.941761 5.46893 0.941761C6.10103 0.941761 6.68697 1.03054 7.22674 1.2081C7.77006 1.38565 8.25124 1.64489 8.67028 1.98579C9.08931 2.32315 9.43022 2.73686 9.693 3.22692C9.95934 3.71697 10.1298 4.27805 10.2044 4.91016ZM14.1488 12.1545C13.6268 12.1545 13.1616 12.0639 12.7532 11.8828C12.3448 11.6982 12.0217 11.4265 11.7837 11.0678C11.5494 10.7056 11.4322 10.2546 11.4322 9.71484C11.4322 9.2603 11.5156 8.87855 11.6825 8.5696C11.8494 8.26065 12.0767 8.01207 12.3643 7.82386C12.652 7.63565 12.9787 7.49361 13.3445 7.39773C13.7138 7.30185 14.1009 7.23438 14.5057 7.19531C14.9815 7.1456 15.3651 7.09943 15.6562 7.05682C15.9474 7.01065 16.1587 6.94318 16.2901 6.8544C16.4215 6.76562 16.4872 6.63423 16.4872 6.46023V6.42827C16.4872 6.09091 16.3807 5.8299 16.1676 5.64524C15.9581 5.46058 15.6598 5.36825 15.2727 5.36825C14.8643 5.36825 14.5394 5.45881 14.2979 5.63991C14.0565 5.81747 13.8967 6.04119 13.8185 6.31108L11.7198 6.14062C11.8263 5.64347 12.0359 5.21378 12.3484 4.85156C12.6609 4.4858 13.0639 4.20526 13.5575 4.00994C14.0547 3.81108 14.63 3.71165 15.2834 3.71165C15.7379 3.71165 16.1729 3.76491 16.5884 3.87145C17.0075 3.97798 17.3786 4.14311 17.7017 4.36683C18.0284 4.59055 18.2859 4.8782 18.4741 5.22976C18.6623 5.57777 18.7564 5.99503 18.7564 6.48153V12H16.6044V10.8654H16.5405C16.4091 11.1211 16.2333 11.3466 16.0131 11.5419C15.793 11.7337 15.5284 11.8846 15.2195 11.9947C14.9105 12.1012 14.5536 12.1545 14.1488 12.1545ZM14.7987 10.5884C15.1325 10.5884 15.4272 10.5227 15.6829 10.3913C15.9386 10.2564 16.1392 10.0753 16.2848 9.84801C16.4304 9.62074 16.5032 9.36328 16.5032 9.07564V8.20739C16.4322 8.25355 16.3345 8.29616 16.2102 8.33523C16.0895 8.37074 15.9528 8.40447 15.8001 8.43643C15.6474 8.46484 15.4947 8.49148 15.342 8.51634C15.1893 8.53764 15.0508 8.55717 14.9265 8.57493C14.6602 8.61399 14.4276 8.67614 14.2287 8.76136C14.0298 8.84659 13.8754 8.962 13.7653 9.1076C13.6552 9.24964 13.6001 9.4272 13.6001 9.64027C13.6001 9.94922 13.712 10.1854 13.9357 10.3487C14.163 10.5085 14.4506 10.5884 14.7987 10.5884ZM22.786 1.09091V12H20.5169V1.09091H22.786ZM28.3325 12.1598C27.4909 12.1598 26.7664 11.9893 26.1592 11.6484C25.5555 11.304 25.0903 10.8175 24.7636 10.1889C24.4369 9.55682 24.2735 8.8093 24.2735 7.94638C24.2735 7.10476 24.4369 6.36612 24.7636 5.73047C25.0903 5.09482 25.5502 4.59943 26.1432 4.24432C26.7398 3.8892 27.4394 3.71165 28.2419 3.71165C28.7817 3.71165 29.2842 3.79865 29.7494 3.97266C30.2181 4.14311 30.6265 4.40057 30.9745 4.74503C31.3261 5.08949 31.5995 5.52273 31.7948 6.04474C31.9901 6.56321 32.0878 7.17045 32.0878 7.86648V8.4897H25.1791V7.08345H29.9518C29.9518 6.75675 29.8808 6.46733 29.7387 6.2152C29.5967 5.96307 29.3996 5.76598 29.1475 5.62393C28.8989 5.47834 28.6095 5.40554 28.2792 5.40554C27.9347 5.40554 27.6294 5.48544 27.363 5.64524C27.1002 5.80149 26.8943 6.01278 26.7451 6.27912C26.596 6.5419 26.5196 6.83487 26.5161 7.15803V8.49503C26.5161 8.89986 26.5906 9.24964 26.7398 9.54439C26.8925 9.83913 27.1073 10.0664 27.3843 10.2262C27.6613 10.386 27.9898 10.4659 28.3698 10.4659C28.6219 10.4659 28.8527 10.4304 29.0622 10.3594C29.2718 10.2884 29.4511 10.1818 29.6002 10.0398C29.7494 9.89773 29.863 9.72372 29.9411 9.51776L32.0399 9.65625C31.9333 10.1605 31.7149 10.6009 31.3847 10.9773C31.058 11.3501 30.6354 11.6413 30.1169 11.8509C29.602 12.0568 29.0072 12.1598 28.3325 12.1598ZM35.8378 7.26989V12H33.5686V3.81818H35.7313V5.26172H35.8271C36.0083 4.78587 36.3119 4.40945 36.738 4.13246C37.1642 3.85192 37.6808 3.71165 38.2881 3.71165C38.8563 3.71165 39.3517 3.83594 39.7742 4.08452C40.1968 4.3331 40.5253 4.68821 40.7597 5.14986C40.9941 5.60795 41.1112 6.15483 41.1112 6.79048V12H38.8421V7.19531C38.8456 6.6946 38.7178 6.30398 38.4585 6.02344C38.1993 5.73935 37.8424 5.5973 37.3879 5.5973C37.0825 5.5973 36.8126 5.663 36.5782 5.79439C36.3474 5.92578 36.1663 6.11754 36.0349 6.36967C35.907 6.61825 35.8414 6.91832 35.8378 7.26989ZM45.9146 12.1332C45.2931 12.1332 44.7303 11.9734 44.226 11.6538C43.7253 11.3306 43.3276 10.8565 43.0328 10.2315C42.7417 9.60298 42.5961 8.83239 42.5961 7.91974C42.5961 6.98224 42.747 6.20277 43.0488 5.58132C43.3507 4.95632 43.752 4.48935 44.2527 4.1804C44.7569 3.8679 45.3091 3.71165 45.9093 3.71165C46.3674 3.71165 46.7491 3.78977 47.0545 3.94602C47.3635 4.09872 47.612 4.29048 47.8002 4.52131C47.992 4.74858 48.1376 4.9723 48.237 5.19247H48.3063V1.09091H50.5701V12H48.3329V10.6896H48.237C48.1305 10.9169 47.9796 11.1424 47.7843 11.3661C47.5925 11.5863 47.3422 11.7692 47.0332 11.9148C46.7278 12.0604 46.3549 12.1332 45.9146 12.1332ZM46.6337 10.3274C46.9995 10.3274 47.3084 10.228 47.5605 10.0291C47.8162 9.8267 48.0115 9.54439 48.1465 9.18217C48.285 8.81996 48.3542 8.3956 48.3542 7.90909C48.3542 7.42259 48.2868 7 48.1518 6.64133C48.0169 6.28267 47.8216 6.00568 47.5659 5.81037C47.3102 5.61506 46.9995 5.5174 46.6337 5.5174C46.2608 5.5174 45.9466 5.61861 45.6909 5.82102C45.4352 6.02344 45.2417 6.30398 45.1103 6.66264C44.9789 7.02131 44.9132 7.43679 44.9132 7.90909C44.9132 8.38494 44.9789 8.80575 45.1103 9.17152C45.2452 9.53374 45.4387 9.81783 45.6909 10.0238C45.9466 10.2262 46.2608 10.3274 46.6337 10.3274ZM54.7689 12.1545C54.2469 12.1545 53.7817 12.0639 53.3733 11.8828C52.9649 11.6982 52.6418 11.4265 52.4039 11.0678C52.1695 10.7056 52.0523 10.2546 52.0523 9.71484C52.0523 9.2603 52.1357 8.87855 52.3026 8.5696C52.4695 8.26065 52.6968 8.01207 52.9845 7.82386C53.2721 7.63565 53.5988 7.49361 53.9646 7.39773C54.3339 7.30185 54.721 7.23438 55.1258 7.19531C55.6017 7.1456 55.9852 7.09943 56.2764 7.05682C56.5676 7.01065 56.7789 6.94318 56.9102 6.8544C57.0416 6.76562 57.1073 6.63423 57.1073 6.46023V6.42827C57.1073 6.09091 57.0008 5.8299 56.7877 5.64524C56.5782 5.46058 56.2799 5.36825 55.8928 5.36825C55.4845 5.36825 55.1595 5.45881 54.9181 5.63991C54.6766 5.81747 54.5168 6.04119 54.4387 6.31108L52.3399 6.14062C52.4465 5.64347 52.656 5.21378 52.9685 4.85156C53.281 4.4858 53.684 4.20526 54.1776 4.00994C54.6748 3.81108 55.2501 3.71165 55.9035 3.71165C56.358 3.71165 56.7931 3.76491 57.2085 3.87145C57.6276 3.97798 57.9987 4.14311 58.3218 4.36683C58.6485 4.59055 58.906 4.8782 59.0942 5.22976C59.2824 5.57777 59.3765 5.99503 59.3765 6.48153V12H57.2245V10.8654H57.1606C57.0292 11.1211 56.8534 11.3466 56.6333 11.5419C56.4131 11.7337 56.1485 11.8846 55.8396 11.9947C55.5306 12.1012 55.1737 12.1545 54.7689 12.1545ZM55.4188 10.5884C55.7526 10.5884 56.0473 10.5227 56.303 10.3913C56.5587 10.2564 56.7593 10.0753 56.9049 9.84801C57.0505 9.62074 57.1233 9.36328 57.1233 9.07564V8.20739C57.0523 8.25355 56.9546 8.29616 56.8303 8.33523C56.7096 8.37074 56.5729 8.40447 56.4202 8.43643C56.2675 8.46484 56.1148 8.49148 55.9621 8.51634C55.8094 8.53764 55.6709 8.55717 55.5466 8.57493C55.2803 8.61399 55.0477 8.67614 54.8488 8.76136C54.6499 8.84659 54.4955 8.962 54.3854 9.1076C54.2753 9.24964 54.2203 9.4272 54.2203 9.64027C54.2203 9.94922 54.3321 10.1854 54.5558 10.3487C54.7831 10.5085 55.0708 10.5884 55.4188 10.5884ZM61.137 12V3.81818H63.3369V5.24574H63.4221C63.5713 4.73793 63.8216 4.3544 64.1732 4.09517C64.5248 3.83239 64.9296 3.70099 65.3877 3.70099C65.5013 3.70099 65.6238 3.7081 65.7552 3.7223C65.8866 3.73651 66.002 3.75604 66.1015 3.78089V5.79439C65.9949 5.76243 65.8476 5.73402 65.6594 5.70916C65.4711 5.6843 65.2989 5.67188 65.1427 5.67188C64.8089 5.67188 64.5106 5.74467 64.2478 5.89027C63.9885 6.03232 63.7826 6.23118 63.6299 6.48686C63.4807 6.74254 63.4062 7.03729 63.4062 7.37109V12H61.137Z" fill="white"/>
</svg>
