<svg width="89" height="21" viewBox="0 0 89 21" fill="none" xmlns="http://www.w3.org/2000/svg">
<g filter="url(#filter0_d_153_1100)">
<path d="M4.40128 12V1.09091H11.7521V2.99254H6.70774V5.59197H11.3739V7.49361H6.70774V10.0984H11.7734V12H4.40128ZM18.6409 5.64524V7.44567H13.6657V5.64524H18.6409ZM30.2425 4.91016H27.9094C27.8667 4.60831 27.7797 4.3402 27.6483 4.10582C27.517 3.8679 27.3483 3.66548 27.1423 3.49858C26.9363 3.33168 26.6984 3.20383 26.4285 3.11506C26.1622 3.02628 25.8728 2.98189 25.5603 2.98189C24.9956 2.98189 24.5038 3.12216 24.0848 3.4027C23.6657 3.67969 23.3408 4.08452 23.11 4.61719C22.8792 5.14631 22.7638 5.78906 22.7638 6.54545C22.7638 7.32315 22.8792 7.97656 23.11 8.50568C23.3444 9.0348 23.6711 9.4343 24.0901 9.70419C24.5091 9.97408 24.9939 10.109 25.5443 10.109C25.8532 10.109 26.1391 10.0682 26.4019 9.98651C26.6682 9.90483 26.9044 9.78587 27.1104 9.62962C27.3163 9.46982 27.4868 9.27628 27.6217 9.04901C27.7602 8.82173 27.8561 8.5625 27.9094 8.27131L30.2425 8.28196C30.1821 8.78267 30.0312 9.26562 29.7897 9.73082C29.5518 10.1925 29.2304 10.6062 28.8256 10.9719C28.4243 11.3342 27.9449 11.6218 27.3873 11.8349C26.8334 12.0444 26.2066 12.1491 25.507 12.1491C24.534 12.1491 23.664 11.929 22.8969 11.4886C22.1334 11.0483 21.5297 10.4109 21.0858 9.57635C20.6455 8.74183 20.4253 7.73153 20.4253 6.54545C20.4253 5.35582 20.6491 4.34375 21.0965 3.50923C21.5439 2.67472 22.1512 2.03906 22.9182 1.60227C23.6853 1.16193 24.5482 0.941761 25.507 0.941761C26.1391 0.941761 26.7251 1.03054 27.2648 1.2081C27.8081 1.38565 28.2893 1.64489 28.7084 1.98579C29.1274 2.32315 29.4683 2.73686 29.7311 3.22692C29.9974 3.71697 30.1679 4.27805 30.2425 4.91016ZM35.5505 12.1598C34.7231 12.1598 34.0075 11.984 33.4039 11.6325C32.8037 11.2773 32.3403 10.7837 32.0136 10.1516C31.6869 9.51598 31.5235 8.77912 31.5235 7.94105C31.5235 7.09588 31.6869 6.35724 32.0136 5.72514C32.3403 5.08949 32.8037 4.59588 33.4039 4.24432C34.0075 3.8892 34.7231 3.71165 35.5505 3.71165C36.3779 3.71165 37.0917 3.8892 37.6919 4.24432C38.2955 4.59588 38.7607 5.08949 39.0874 5.72514C39.4142 6.35724 39.5775 7.09588 39.5775 7.94105C39.5775 8.77912 39.4142 9.51598 39.0874 10.1516C38.7607 10.7837 38.2955 11.2773 37.6919 11.6325C37.0917 11.984 36.3779 12.1598 35.5505 12.1598ZM35.5612 10.402C35.9376 10.402 36.2519 10.2955 36.504 10.0824C36.7561 9.86577 36.9461 9.57102 37.074 9.19815C37.2053 8.82528 37.271 8.40092 37.271 7.92507C37.271 7.44922 37.2053 7.02486 37.074 6.65199C36.9461 6.27912 36.7561 5.98437 36.504 5.76776C36.2519 5.55114 35.9376 5.44283 35.5612 5.44283C35.1812 5.44283 34.8616 5.55114 34.6024 5.76776C34.3467 5.98437 34.1531 6.27912 34.0218 6.65199C33.8939 7.02486 33.83 7.44922 33.83 7.92507C33.83 8.40092 33.8939 8.82528 34.0218 9.19815C34.1531 9.57102 34.3467 9.86577 34.6024 10.0824C34.8616 10.2955 35.1812 10.402 35.5612 10.402ZM43.3222 7.26989V12H41.053V3.81818H43.2156V5.26172H43.3115C43.4926 4.78587 43.7963 4.40945 44.2224 4.13246C44.6485 3.85192 45.1652 3.71165 45.7725 3.71165C46.3406 3.71165 46.836 3.83594 47.2586 4.08452C47.6812 4.3331 48.0097 4.68821 48.2441 5.14986C48.4784 5.60795 48.5956 6.15483 48.5956 6.79048V12H46.3264V7.19531C46.33 6.6946 46.2021 6.30398 45.9429 6.02344C45.6837 5.73935 45.3268 5.5973 44.8722 5.5973C44.5669 5.5973 44.297 5.663 44.0626 5.79439C43.8318 5.92578 43.6507 6.11754 43.5193 6.36967C43.3914 6.61825 43.3257 6.91832 43.3222 7.26989ZM54.736 3.81818V5.52273H49.8088V3.81818H54.736ZM50.9274 1.85795H53.1966V9.4858C53.1966 9.69531 53.2285 9.85866 53.2924 9.97585C53.3564 10.0895 53.4451 10.1694 53.5588 10.2156C53.676 10.2617 53.8109 10.2848 53.9636 10.2848C54.0701 10.2848 54.1767 10.2759 54.2832 10.2582C54.3897 10.2369 54.4714 10.2209 54.5282 10.2102L54.8851 11.8988C54.7715 11.9343 54.6117 11.9751 54.4057 12.0213C54.1998 12.071 53.9494 12.1012 53.6547 12.1119C53.1078 12.1332 52.6284 12.0604 52.2164 11.8935C51.8081 11.7266 51.4902 11.4673 51.263 11.1158C51.0357 10.7642 50.9238 10.3203 50.9274 9.78409V1.85795ZM56.2141 12V3.81818H58.4141V5.24574H58.4993C58.6484 4.73793 58.8988 4.3544 59.2504 4.09517C59.6019 3.83239 60.0067 3.70099 60.4648 3.70099C60.5785 3.70099 60.701 3.7081 60.8324 3.7223C60.9638 3.73651 61.0792 3.75604 61.1786 3.78089V5.79439C61.0721 5.76243 60.9247 5.73402 60.7365 5.70916C60.5483 5.6843 60.3761 5.67188 60.2198 5.67188C59.886 5.67188 59.5877 5.74467 59.3249 5.89027C59.0657 6.03232 58.8597 6.23118 58.707 6.48686C58.5579 6.74254 58.4833 7.03729 58.4833 7.37109V12H56.2141ZM64.4506 12.1545C63.9285 12.1545 63.4633 12.0639 63.055 11.8828C62.6466 11.6982 62.3234 11.4265 62.0855 11.0678C61.8511 10.7056 61.7339 10.2546 61.7339 9.71484C61.7339 9.2603 61.8174 8.87855 61.9843 8.5696C62.1512 8.26065 62.3785 8.01207 62.6661 7.82386C62.9537 7.63565 63.2805 7.49361 63.6462 7.39773C64.0155 7.30185 64.4026 7.23438 64.8074 7.19531C65.2833 7.1456 65.6668 7.09943 65.958 7.05682C66.2492 7.01065 66.4605 6.94318 66.5919 6.8544C66.7233 6.76562 66.789 6.63423 66.789 6.46023V6.42827C66.789 6.09091 66.6824 5.8299 66.4694 5.64524C66.2599 5.46058 65.9616 5.36825 65.5745 5.36825C65.1661 5.36825 64.8412 5.45881 64.5997 5.63991C64.3582 5.81747 64.1984 6.04119 64.1203 6.31108L62.0216 6.14062C62.1281 5.64347 62.3376 5.21378 62.6501 4.85156C62.9626 4.4858 63.3657 4.20526 63.8593 4.00994C64.3564 3.81108 64.9317 3.71165 65.5851 3.71165C66.0397 3.71165 66.4747 3.76491 66.8902 3.87145C67.3092 3.97798 67.6803 4.14311 68.0035 4.36683C68.3302 4.59055 68.5876 4.8782 68.7758 5.22976C68.964 5.57777 69.0581 5.99503 69.0581 6.48153V12H66.9062V10.8654H66.8422C66.7108 11.1211 66.5351 11.3466 66.3149 11.5419C66.0947 11.7337 65.8302 11.8846 65.5212 11.9947C65.2123 12.1012 64.8554 12.1545 64.4506 12.1545ZM65.1004 10.5884C65.4342 10.5884 65.729 10.5227 65.9846 10.3913C66.2403 10.2564 66.441 10.0753 66.5866 9.84801C66.7322 9.62074 66.805 9.36328 66.805 9.07564V8.20739C66.7339 8.25355 66.6363 8.29616 66.512 8.33523C66.3912 8.37074 66.2545 8.40447 66.1018 8.43643C65.9491 8.46484 65.7964 8.49148 65.6437 8.51634C65.491 8.53764 65.3525 8.55717 65.2282 8.57493C64.9619 8.61399 64.7293 8.67614 64.5305 8.76136C64.3316 8.84659 64.1771 8.962 64.067 9.1076C63.9569 9.24964 63.9019 9.4272 63.9019 9.64027C63.9019 9.94922 64.0138 10.1854 64.2375 10.3487C64.4648 10.5085 64.7524 10.5884 65.1004 10.5884ZM74.5154 12.1598C73.6773 12.1598 72.9564 11.9822 72.3527 11.6271C71.7526 11.2685 71.2909 10.7713 70.9678 10.1357C70.6482 9.5 70.4884 8.76847 70.4884 7.94105C70.4884 7.10298 70.6499 6.3679 70.9731 5.7358C71.2998 5.10014 71.7632 4.60476 72.3634 4.24964C72.9635 3.89098 73.6773 3.71165 74.5047 3.71165C75.2185 3.71165 75.8435 3.84126 76.3797 4.1005C76.9159 4.35973 77.3403 4.72372 77.6528 5.19247C77.9653 5.66122 78.1375 6.21165 78.1695 6.84375H76.0281C75.9678 6.43537 75.808 6.10689 75.5487 5.85831C75.2931 5.60618 74.9575 5.48011 74.542 5.48011C74.1904 5.48011 73.8833 5.57599 73.6205 5.76776C73.3612 5.95597 73.1588 6.23118 73.0132 6.59339C72.8676 6.95561 72.7948 7.39418 72.7948 7.90909C72.7948 8.43111 72.8659 8.875 73.0079 9.24077C73.1535 9.60653 73.3577 9.8853 73.6205 10.0771C73.8833 10.2688 74.1904 10.3647 74.542 10.3647C74.8012 10.3647 75.0338 10.3114 75.2398 10.2049C75.4493 10.0984 75.6215 9.94389 75.7565 9.74148C75.895 9.53551 75.9855 9.28871 76.0281 9.00107H78.1695C78.134 9.62607 77.9635 10.1765 77.6581 10.6523C77.3563 11.1246 76.939 11.494 76.4063 11.7603C75.8737 12.0266 75.2433 12.1598 74.5154 12.1598ZM83.9743 3.81818V5.52273H79.0471V3.81818H83.9743ZM80.1657 1.85795H82.4348V9.4858C82.4348 9.69531 82.4668 9.85866 82.5307 9.97585C82.5946 10.0895 82.6834 10.1694 82.7971 10.2156C82.9142 10.2617 83.0492 10.2848 83.2019 10.2848C83.3084 10.2848 83.415 10.2759 83.5215 10.2582C83.628 10.2369 83.7097 10.2209 83.7665 10.2102L84.1234 11.8988C84.0098 11.9343 83.85 11.9751 83.644 12.0213C83.438 12.071 83.1877 12.1012 82.8929 12.1119C82.3461 12.1332 81.8667 12.0604 81.4547 11.8935C81.0463 11.7266 80.7285 11.4673 80.5012 11.1158C80.274 10.7642 80.1621 10.3203 80.1657 9.78409V1.85795Z" fill="white"/>
</g>
<defs>
<filter id="filter0_d_153_1100" x="0.401245" y="0.94165" width="87.7222" height="19.2183" filterUnits="userSpaceOnUse" color-interpolation-filters="sRGB">
<feFlood flood-opacity="0" result="BackgroundImageFix"/>
<feColorMatrix in="SourceAlpha" type="matrix" values="0 0 0 0 0 0 0 0 0 0 0 0 0 0 0 0 0 0 127 0" result="hardAlpha"/>
<feOffset dy="4"/>
<feGaussianBlur stdDeviation="2"/>
<feComposite in2="hardAlpha" operator="out"/>
<feColorMatrix type="matrix" values="0 0 0 0 0 0 0 0 0 0 0 0 0 0 0 0 0 0 0.25 0"/>
<feBlend mode="normal" in2="BackgroundImageFix" result="effect1_dropShadow_153_1100"/>
<feBlend mode="normal" in="SourceGraphic" in2="effect1_dropShadow_153_1100" result="shape"/>
</filter>
</defs>
</svg>
