<svg width="60" height="60" viewBox="0 0 60 60" fill="none" xmlns="http://www.w3.org/2000/svg">
<g clip-path="url(#clip0_153_1088)" filter="url(#filter0_d_153_1088)">
<mask id="mask0_153_1088" style="mask-type:luminance" maskUnits="userSpaceOnUse" x="4" y="0" width="52" height="52">
<path d="M4.68237 0H55.2605V52H4.68237V0Z" fill="white"/>
</mask>
<g mask="url(#mask0_153_1088)">
<path d="M53.2642 27.9191H52.3787V21.436C52.3787 21.3048 52.366 21.1747 52.3406 21.0467C52.3152 20.9176 52.2771 20.7928 52.2274 20.6711C52.1766 20.5505 52.1153 20.4352 52.0423 20.3263C51.9693 20.2173 51.8868 20.1157 51.7947 20.0237C51.7016 19.9306 51.6011 19.8481 51.4921 19.7751C51.3832 19.7021 51.2679 19.6396 51.1462 19.5899C51.0256 19.5402 50.9008 19.5021 50.7717 19.4767C50.6437 19.4503 50.5135 19.4376 50.3824 19.4376H48.6061V11.7093C48.6082 11.4819 48.531 11.2872 48.3723 11.1232L37.9177 0.464437C37.7516 0.276123 37.5432 0.17985 37.2924 0.177734H11.6574C11.5463 0.177734 11.4406 0.198893 11.339 0.241211C11.2364 0.283529 11.1464 0.343831 11.0692 0.421061C10.9909 0.499349 10.9306 0.589274 10.8883 0.691895C10.846 0.793457 10.8248 0.900309 10.8248 1.01034V19.4513H9.02209C8.89091 19.4513 8.76078 19.464 8.63171 19.4894C8.5037 19.5148 8.37887 19.5529 8.2572 19.6037C8.1366 19.6534 8.02128 19.7148 7.91231 19.7878C7.80334 19.8608 7.70284 19.9433 7.60974 20.0364C7.5177 20.1295 7.43412 20.23 7.36112 20.3389C7.28918 20.449 7.22677 20.5632 7.17704 20.6849C7.12732 20.8066 7.08923 20.9314 7.06384 21.0594C7.03739 21.1885 7.0247 21.3186 7.0247 21.4498V30.6169H6.7052C6.57507 30.6169 6.44495 30.6296 6.31588 30.6549C6.18787 30.6803 6.06303 30.7184 5.94137 30.7692C5.82076 30.8189 5.70544 30.8803 5.59648 30.9533C5.48751 31.0263 5.387 31.1099 5.2939 31.2019C5.20081 31.295 5.11829 31.3955 5.04529 31.5055C4.97229 31.6145 4.91093 31.7298 4.86121 31.8504C4.81148 31.9721 4.7734 32.0969 4.74801 32.226C4.72156 32.354 4.70886 32.4841 4.70886 32.6153C4.70886 32.6153 4.70886 32.6883 4.70886 32.7285L7.012 49.864C7.01624 49.992 7.03316 50.1179 7.06278 50.2428C7.09135 50.3676 7.13155 50.4893 7.18445 50.6056C7.23629 50.7231 7.29976 50.8341 7.37276 50.9389C7.44682 51.0436 7.52934 51.141 7.62138 51.2298C7.71448 51.3187 7.81392 51.398 7.92183 51.4679C8.02869 51.5377 8.14189 51.5959 8.26038 51.6445C8.37992 51.6921 8.50159 51.7281 8.62748 51.7524C8.75338 51.7768 8.88033 51.7895 9.00834 51.7895H50.3961C50.5241 51.7895 50.65 51.7768 50.7759 51.7524C50.9008 51.7281 51.0235 51.6921 51.142 51.6445C51.2605 51.5969 51.3737 51.5387 51.4805 51.4689C51.5884 51.4001 51.6879 51.3208 51.7799 51.2319C51.8719 51.1431 51.9555 51.0468 52.0285 50.9421C52.1026 50.8384 52.1661 50.7273 52.2179 50.6109C52.2708 50.4935 52.311 50.3729 52.3406 50.2491C52.3702 50.1243 52.3872 49.9984 52.3925 49.8704L55.2605 30.0244C55.2637 29.9842 55.2637 29.944 55.2605 29.9038C55.2595 29.7737 55.2457 29.6436 55.2203 29.5155C55.1939 29.3875 55.1558 29.2638 55.105 29.1431C55.0542 29.0225 54.9929 28.9083 54.9199 28.8004C54.8469 28.6914 54.7633 28.592 54.6713 28.4989C54.5782 28.4068 54.4777 28.3254 54.3698 28.2524C54.2608 28.1804 54.1455 28.1191 54.0249 28.0693C53.9043 28.0196 53.7805 27.9826 53.6525 27.9572C53.5245 27.9318 53.3943 27.9191 53.2642 27.9191ZM8.67509 30.6169V21.436C8.67615 21.3948 8.68461 21.3535 8.70154 21.3154C8.71847 21.2763 8.74174 21.2424 8.77136 21.2118C8.80098 21.1821 8.83484 21.1589 8.87398 21.143C8.91207 21.1261 8.95333 21.1176 8.99459 21.1165H10.7984V30.6169H8.67509ZM33.0459 28.3116L31.6282 30.6169H12.489V1.84294H36.4799V11.7093C36.4831 11.8162 36.5064 11.9177 36.5487 12.0161C36.591 12.1134 36.6503 12.1991 36.7254 12.2743C36.8016 12.3494 36.8883 12.4076 36.9856 12.4499C37.084 12.4911 37.1856 12.5133 37.2924 12.5155H46.9282V27.9191H33.7854C33.6404 27.9181 33.5039 27.9519 33.3781 28.0217C33.2511 28.0926 33.1495 28.1889 33.0734 28.3116H33.0459ZM48.6061 27.9191V21.1165H50.4088C50.4511 21.1176 50.4913 21.1261 50.5305 21.143C50.5696 21.1589 50.6035 21.1821 50.6331 21.2118C50.6627 21.2424 50.686 21.2763 50.7029 21.3154C50.7188 21.3535 50.7273 21.3948 50.7283 21.436V27.9191H48.6061Z" fill="white"/>
</g>
<path d="M17.786 9.04541H30.8029C30.914 9.04541 31.0198 9.02425 31.1214 8.98193C31.224 8.93962 31.3139 8.87931 31.3912 8.80103C31.4694 8.72274 31.5297 8.63281 31.5721 8.53125C31.6144 8.42863 31.6355 8.32284 31.6355 8.21175C31.6355 8.10173 31.6144 7.99593 31.5721 7.89331C31.5297 7.79175 31.4694 7.70182 31.3912 7.62354C31.3139 7.54525 31.224 7.48494 31.1214 7.44263C31.0198 7.40031 30.914 7.37915 30.8029 7.37915H17.786C17.676 7.37915 17.5702 7.40031 17.4676 7.44263C17.366 7.48494 17.2761 7.54525 17.1978 7.62354C17.1195 7.70182 17.0603 7.79175 17.0179 7.89331C16.9756 7.99593 16.9545 8.10173 16.9545 8.21175C16.9545 8.32284 16.9756 8.42863 17.0179 8.53125C17.0603 8.63281 17.1195 8.72274 17.1978 8.80103C17.2761 8.87931 17.366 8.93962 17.4676 8.98193C17.5702 9.02425 17.676 9.04541 17.786 9.04541Z" fill="white"/>
<path d="M22.3912 23.9285H17.786C17.676 23.9285 17.5702 23.9496 17.4676 23.9909C17.366 24.0332 17.2761 24.0935 17.1978 24.1718C17.1195 24.2501 17.0603 24.34 17.0179 24.4416C16.9756 24.5442 16.9545 24.65 16.9545 24.7611C16.9545 24.8711 16.9756 24.9779 17.0179 25.0795C17.0603 25.1811 17.1195 25.271 17.1978 25.3493C17.2761 25.4276 17.366 25.4879 17.4676 25.5302C17.5702 25.5725 17.676 25.5937 17.786 25.5937H22.3912C22.5013 25.5937 22.6081 25.5725 22.7097 25.5302C22.8112 25.4879 22.9012 25.4276 22.9795 25.3493C23.0577 25.271 23.118 25.1811 23.1604 25.0795C23.2027 24.9769 23.2238 24.8711 23.2238 24.7611C23.2238 24.65 23.2027 24.5442 23.1604 24.4416C23.118 24.34 23.0577 24.2501 22.9795 24.1718C22.9012 24.0935 22.8112 24.0332 22.7097 23.9909C22.6081 23.9496 22.5013 23.9285 22.3912 23.9285Z" fill="white"/>
<path d="M32.5539 23.9285H26.3575C26.2475 23.9285 26.1417 23.9496 26.0391 23.9909C25.9375 24.0332 25.8476 24.0935 25.7693 24.1718C25.6921 24.2501 25.6318 24.34 25.5895 24.4416C25.5472 24.5442 25.526 24.65 25.526 24.7611C25.526 24.8711 25.5472 24.9779 25.5895 25.0795C25.6318 25.1811 25.6921 25.271 25.7693 25.3493C25.8476 25.4276 25.9375 25.4879 26.0391 25.5302C26.1417 25.5725 26.2475 25.5937 26.3575 25.5937H32.5539C32.6639 25.5937 32.7697 25.5725 32.8724 25.5302C32.9739 25.4879 33.0638 25.4276 33.1421 25.3493C33.2204 25.271 33.2797 25.1811 33.322 25.0795C33.3643 24.9769 33.3855 24.8711 33.3855 24.7611C33.3855 24.65 33.3643 24.5442 33.322 24.4416C33.2797 24.34 33.2204 24.2501 33.1421 24.1718C33.0638 24.0935 32.9739 24.0332 32.8724 23.9909C32.7697 23.9496 32.6639 23.9285 32.5539 23.9285Z" fill="white"/>
<path d="M17.786 12.7896H32.5073C32.6173 12.7896 32.7231 12.7684 32.8257 12.7261C32.9273 12.6838 33.0172 12.6235 33.0955 12.5452C33.1738 12.4669 33.233 12.377 33.2754 12.2754C33.3177 12.1728 33.3388 12.067 33.3388 11.9559C33.3388 11.8459 33.3177 11.7401 33.2754 11.6375C33.233 11.5359 33.1738 11.446 33.0955 11.3677C33.0172 11.2894 32.9273 11.2291 32.8257 11.1868C32.7231 11.1444 32.6173 11.1233 32.5073 11.1233H17.786C17.676 11.1233 17.5702 11.1444 17.4676 11.1868C17.366 11.2291 17.2761 11.2894 17.1978 11.3677C17.1195 11.446 17.0603 11.5359 17.0179 11.6375C16.9756 11.7401 16.9545 11.8459 16.9545 11.9559C16.9545 12.067 16.9756 12.1728 17.0179 12.2754C17.0603 12.377 17.1195 12.4669 17.1978 12.5452C17.2761 12.6235 17.366 12.6838 17.4676 12.7261C17.5702 12.7684 17.676 12.7896 17.786 12.7896Z" fill="white"/>
<path d="M37.9578 19.7571H17.786C17.676 19.7571 17.5702 19.7782 17.4676 19.8206C17.366 19.8629 17.2761 19.9232 17.1978 20.0015C17.1195 20.0798 17.0603 20.1697 17.0179 20.2712C16.9756 20.3739 16.9545 20.4797 16.9545 20.5907C16.9545 20.7008 16.9756 20.8066 17.0179 20.9092C17.0603 21.0107 17.1195 21.1007 17.1978 21.179C17.2761 21.2572 17.366 21.3175 17.4676 21.3599C17.5702 21.4022 17.676 21.4233 17.786 21.4233H37.9578C38.0678 21.4233 38.1736 21.4022 38.2762 21.3599C38.3778 21.3175 38.4677 21.2572 38.546 21.179C38.6233 21.1007 38.6836 21.0107 38.7259 20.9092C38.7682 20.8066 38.7893 20.7008 38.7893 20.5907C38.7893 20.4797 38.7682 20.3739 38.7259 20.2712C38.6836 20.1697 38.6233 20.0798 38.546 20.0015C38.4677 19.9232 38.3778 19.8629 38.2762 19.8206C38.1736 19.7782 38.0678 19.7571 37.9578 19.7571Z" fill="white"/>
<path d="M42.3832 15.4873H17.7596C17.6496 15.4873 17.5427 15.5085 17.4412 15.5508C17.3385 15.592 17.2486 15.6523 17.1703 15.7306C17.092 15.8089 17.0328 15.8988 16.9905 16.0015C16.9482 16.103 16.927 16.2099 16.927 16.3199C16.927 16.431 16.9482 16.5368 16.9905 16.6394C17.0328 16.741 17.092 16.8309 17.1703 16.9092C17.2486 16.9875 17.3385 17.0478 17.4412 17.0901C17.5427 17.1324 17.6496 17.1525 17.7596 17.1525H42.3832C42.4932 17.1525 42.6001 17.1313 42.7017 17.089C42.8032 17.0467 42.8931 16.9875 42.9714 16.9092C43.0497 16.8309 43.11 16.741 43.1513 16.6383C43.1936 16.5368 43.2148 16.4299 43.2148 16.3199C43.2148 16.2099 43.1936 16.103 43.1513 16.0015C43.11 15.8988 43.0497 15.8089 42.9714 15.7317C42.8931 15.6534 42.8032 15.5931 42.7017 15.5508C42.6001 15.5085 42.4932 15.4873 42.3832 15.4873Z" fill="white"/>
</g>
<defs>
<filter id="filter0_d_153_1088" x="0" y="0" width="60" height="60" filterUnits="userSpaceOnUse" color-interpolation-filters="sRGB">
<feFlood flood-opacity="0" result="BackgroundImageFix"/>
<feColorMatrix in="SourceAlpha" type="matrix" values="0 0 0 0 0 0 0 0 0 0 0 0 0 0 0 0 0 0 127 0" result="hardAlpha"/>
<feOffset dy="4"/>
<feGaussianBlur stdDeviation="2"/>
<feComposite in2="hardAlpha" operator="out"/>
<feColorMatrix type="matrix" values="0 0 0 0 0 0 0 0 0 0 0 0 0 0 0 0 0 0 0.25 0"/>
<feBlend mode="normal" in2="BackgroundImageFix" result="effect1_dropShadow_153_1088"/>
<feBlend mode="normal" in="SourceGraphic" in2="effect1_dropShadow_153_1088" result="shape"/>
</filter>
<clipPath id="clip0_153_1088">
<rect width="52" height="52" fill="white" transform="translate(4)"/>
</clipPath>
</defs>
</svg>
