<svg width="45" height="45" viewBox="0 0 45 45" fill="none" xmlns="http://www.w3.org/2000/svg">
<g clip-path="url(#clip0_1284_3064)">
<path d="M22.5 29.133C16.7184 29.133 12.0163 24.4299 12.0163 18.6493C12.0163 12.8687 16.7184 8.16559 22.5 8.16559C28.2806 8.16559 32.9837 12.8687 32.9837 18.6493C32.9837 24.4299 28.2806 29.133 22.5 29.133ZM22.5 9.60938C17.515 9.60938 13.4601 13.6652 13.4601 18.6493C13.4601 23.6343 17.515 27.6892 22.5 27.6892C27.4841 27.6892 31.5399 23.6343 31.5399 18.6493C31.5399 13.6652 27.4841 9.60938 22.5 9.60938ZM38.4091 6.58997C34.1592 2.34009 28.5095 0 22.5 0C16.4896 0 10.8398 2.34009 6.58997 6.58997C2.34009 10.8398 0 16.4896 0 22.5C0 28.5095 2.34009 34.1592 6.58997 38.4091C10.8398 42.659 16.4896 44.9991 22.5 44.9991C28.5095 44.9991 34.1592 42.659 38.4091 38.4091C42.659 34.1592 44.9991 28.5095 44.9991 22.5C44.9991 16.4896 42.659 10.8398 38.4091 6.58997ZM7.61078 7.61078C11.5878 3.63373 16.875 1.44379 22.5 1.44379C28.1241 1.44379 33.4113 3.63373 37.3883 7.61078C41.3654 11.5878 43.5553 16.875 43.5553 22.5C43.5553 27.1747 42.0401 31.6168 39.245 35.2679C37.0203 32.157 33.468 30.3195 29.6109 30.3195H15.3891C11.5311 30.3195 7.97882 32.157 5.75409 35.2679C2.95898 31.6168 1.44379 27.1747 1.44379 22.5C1.44379 16.875 3.63373 11.5878 7.61078 7.61078ZM22.5 43.5553C16.875 43.5553 11.5878 41.3654 7.61078 37.3883C7.29858 37.0761 6.99921 36.7548 6.70898 36.427C8.64349 33.5028 11.8716 31.7633 15.3891 31.7633H29.6109C33.1284 31.7633 36.3556 33.5028 38.2901 36.427C38.0008 36.7548 37.7005 37.0761 37.3883 37.3883C33.4113 41.3654 28.1241 43.5553 22.5 43.5553Z" fill="#850F16"/>
</g>
<defs>
<clipPath id="clip0_1284_3064">
<rect width="45" height="45" fill="white"/>
</clipPath>
</defs>
</svg>
