<svg width="609" height="609" viewBox="0 0 609 609" fill="none" xmlns="http://www.w3.org/2000/svg">
<path d="M125.041 485.706C107.484 483.624 84.8477 474.567 71.2557 464.172L59.5966 455.263L51.6793 461.941C47.318 465.609 39.2892 470.9 33.8375 473.687C24.0245 478.693 23.9378 478.879 25.3874 490.984C26.1928 497.712 28.7452 509.606 31.0497 517.425L35.25 531.624L36.8483 517.425C37.728 509.606 38.6325 504.762 38.8679 506.657C39.9954 515.925 54.4547 546.851 66.7209 566.279C74.2789 578.248 81.205 591.976 82.1095 596.808C84.3893 608.975 88.2302 603.982 90.0268 586.5C91.2658 574.543 90.3861 569.798 84.5751 557.098C80.4368 548.065 77.5251 536.989 77.3641 529.678C77.0295 515.293 75.1958 514.24 70.5867 525.813C67.5387 533.445 67.0431 533.742 65.0483 529.034C61.9755 521.811 61.9755 490.724 65.0359 482.658L67.5759 475.967L77.4012 480.985C88.478 486.647 97.3246 488.456 122.526 490.228C142.164 491.603 144.184 487.986 125.041 485.706Z" fill="#EEEAD6"/>
<path d="M439.825 291.528L435.389 311.005C432.961 321.71 427.683 337.396 423.668 345.858C416.445 361.086 394.13 390.921 389.967 390.921C388.778 390.921 388.815 386.56 390.041 381.245C395.766 356.576 390.426 309.109 378.63 279.881C374.975 270.799 372.41 262.944 372.955 262.398C374.789 260.565 385.408 267.578 396.992 278.258L408.552 288.926L406.619 277.477C398.306 228.226 356.365 178.666 317.782 172.483C312.046 171.566 307.362 169.894 307.362 168.754C307.362 163.228 357.022 148.843 384.169 146.514C405.542 144.667 405.814 141.198 384.689 139.972L370.515 139.141L383.376 136.849C395.481 134.706 416.693 136.849 429.801 141.545C432.639 142.561 430.309 140.703 424.647 137.432C415.293 132.017 411.328 131.497 382.112 131.72C354.11 131.943 347.357 132.884 330.618 138.869C304.847 148.075 290.152 149.338 260.961 144.828L236.478 141.025L223.803 147.864C216.827 151.618 205.515 159.746 198.663 165.916C183.572 179.508 182.742 177.216 196.483 159.87C210.471 142.165 232.86 124.174 255.15 112.688C283.796 97.9442 279.98 96.7547 237.903 107.324C212.776 113.643 180.029 129.836 165.953 142.908C154.939 153.117 154.48 153.291 143.787 150.578C125.847 146.055 113.444 151.011 92.8392 170.935C83.1501 180.301 71.0574 194.24 65.9898 201.885C56.9946 215.452 38.7315 254.394 40.5157 256.191C41.0113 256.674 44.1212 255.336 47.4418 253.193C50.7499 251.049 60.9966 248.001 70.2148 246.39C81.2792 244.458 90.6957 240.827 97.9316 235.71C110.173 227.049 110.458 227.235 105.019 240.294C96.3085 261.159 70.5618 291.082 30.269 327.187L19.9604 336.43L25.6475 342.203C33.0816 349.737 54.3183 351.384 80.5234 346.466C93.6074 344 103.197 343.554 110.173 345.09C115.835 346.342 124.248 346.775 128.857 346.069C138.732 344.545 139.426 347.283 132.153 359.227C128.659 364.964 120.742 370.738 106.654 377.837C82.7908 389.843 75.3691 397.897 75.3691 411.749C75.3691 424.759 78.6773 432.825 87.4495 441.275C108.104 461.112 143.577 466.625 170.352 454.136C187.537 446.132 190.796 446.132 201.674 454.161C214.04 463.305 214.956 462.041 203.607 451.484C198.292 446.528 193.943 441.461 193.943 440.209C193.943 435.538 202.554 434.906 213.878 438.747C229.849 444.187 230.407 441.894 214.956 434.188C206.259 429.851 202.826 426.791 204.177 424.598C205.713 422.107 210.087 421.996 223.766 424.127C233.443 425.639 241.806 426.456 242.326 425.936C242.847 425.416 235.066 422.876 225.042 420.286C207.349 415.726 206.828 415.355 206.828 407.512C206.828 395.456 202.058 384.02 195.12 379.461C186.422 373.761 186.125 374.071 187.896 387.043C188.974 394.936 188.541 398.665 186.558 398.665C184.948 398.665 183.622 397.191 183.622 395.382C183.622 393.573 180.091 387.811 175.779 382.558C167.552 372.559 154.344 367.058 144.68 369.598C136.973 371.605 138.509 369.016 159.139 345.227C183.919 316.655 196.78 310.001 224.695 311.265C237.903 311.872 246.452 313.483 248.608 315.8C251.383 318.798 251.16 319.121 247.282 317.745C242.363 316.011 225.488 319.083 212.962 323.99C205.912 326.765 206.779 327.224 230.035 333.084C275.742 344.619 293.138 344.421 307.647 332.192C316.841 324.436 325.266 307.945 325.353 297.487C325.439 285.655 330.42 286.671 336.231 299.73C343.343 315.664 343.925 341.138 337.557 357.357L332.985 368.966L338.052 362.523C344.062 354.903 352.512 330.16 355.126 312.554C357.282 298.144 359.277 299.804 365.608 321.214C375.731 355.436 364.604 402.804 336.64 444.509C333.542 449.155 330.259 457.865 329.355 463.875C328.438 469.896 327.087 477.999 326.344 481.915C325.6 485.817 325.997 489.014 327.223 489.014C328.438 489.014 331.399 485.817 333.803 481.915C339.168 473.167 348.497 462.846 386.981 423.012C403.534 405.876 421.512 385.148 426.952 376.945C442.092 354.098 446.925 329.59 441.745 301.849L439.825 291.528ZM113.394 305.144C110.198 306.718 102.714 311.005 96.7297 314.685L85.876 321.4L80.573 310.98C74.9727 299.978 75.3072 298.962 83.1749 303.187C87.7717 305.64 102.9 303.682 114.881 299.086C121.361 296.595 120.06 301.898 113.394 305.144ZM103.036 290.239C102.565 290.239 100.794 286.386 99.0839 281.665C94.8588 269.969 95.0818 269.275 102.119 272.484C106.815 274.628 111.734 274.281 123.022 270.997C131.137 268.631 138.249 267.156 138.807 267.726C139.699 268.606 105.328 290.239 103.036 290.239ZM167.391 436.505C176.919 431.549 178.48 431.301 178.48 434.696C178.48 438.933 157.082 449.96 146.253 451.311C140.578 452.005 131.596 451.497 126.293 450.196C116.715 447.817 94.5862 435.352 96.5067 433.42C97.0643 432.862 103.259 434.225 110.285 436.455C127.742 441.969 156.847 441.994 167.391 436.505ZM301.563 192.469C309.766 188.07 315.986 188.9 328.363 195.975L339.576 202.405L330.123 202.43C324.919 202.443 319.12 202.988 317.237 203.644C315.341 204.301 309.828 202.715 304.958 200.113C296.422 195.554 296.31 195.294 301.563 192.469ZM319.604 250.628C307.511 263.167 291.317 269.585 271.778 269.585C261.89 269.585 260.763 270.118 263.538 273.451C266.227 276.697 265.756 277.391 260.626 277.713C249.141 278.444 240.096 276.957 225.637 271.976C205.23 264.951 197.784 265.583 185.319 275.396C170.488 287.055 163.897 294.737 156.45 308.961C150.763 319.814 147.542 323.804 147.542 319.963C147.542 319.269 152.138 306.445 157.764 291.441C169.274 260.775 177.848 246.936 200.733 222.106C216.109 205.416 216.592 205.119 218.215 211.562C219.132 215.204 219.194 219.293 218.351 220.656C217.496 222.044 221.077 223.134 226.653 223.147C232.055 223.171 242.562 224.807 250.008 226.789C265.248 230.853 266.735 230.296 256.451 224.348L249.351 220.247L258.049 221.685C262.844 222.477 273.859 226.306 282.545 230.209C295.083 235.846 301.638 237.209 314.437 236.776C323.308 236.478 330.556 236.924 330.556 237.755C330.556 238.585 325.625 244.383 319.604 250.628ZM357.307 236.317C350.418 234.954 327.979 217.93 327.979 214.089C327.979 213.371 334.075 212.788 341.559 212.788C354.147 212.788 356.006 213.643 367.33 224.497C374.033 230.928 379.535 236.739 379.535 237.395C379.535 238.956 367.628 238.374 357.307 236.317Z" fill="#EEEAD6"/>
<path d="M244.396 252.164C239.91 258.235 232.439 257.876 230.779 251.508C230.035 248.67 227.359 246.341 224.819 246.341C218.698 246.341 220.929 255.423 228.35 260.627C235.822 265.868 241.967 265.372 248.323 259.004C252.437 254.878 253.031 252.87 250.739 250.615C248.459 248.373 246.911 248.745 244.396 252.164Z" fill="#EEEAD6"/>
<mask id="mask0_153_3936" style="mask-type:luminance" maskUnits="userSpaceOnUse" x="1" y="352" width="38" height="86">
<path d="M1.90808 352.078H38.0625V437.719H1.90808V352.078Z" fill="white"/>
</mask>
<g mask="url(#mask0_153_3936)">
<path d="M26.3539 430.285C26.3291 427.807 24.6316 418.799 22.5749 410.287C20.5181 401.763 18.8083 393.784 18.7587 392.545C18.5852 388.307 26.738 396.993 31.6073 406.223L36.4766 415.442L36.5881 407.227C36.7492 395.853 32.5613 385.854 23.8139 376.722C19.7375 372.46 14.6452 365.559 12.4893 361.396L8.5864 353.813L5.30302 361.396C3.49405 365.559 1.99485 378.358 1.95768 389.831C1.90812 408.949 2.54001 411.526 9.50327 420.806C20.5181 435.501 26.4282 438.822 26.3539 430.285Z" fill="#EEEAD6"/>
</g>
<path d="M593.611 173.995C587.639 163.922 577.541 149.277 571.161 141.434L559.563 127.173L574.58 128.932L589.609 130.679L571.569 118.574C511.106 78.0085 442.278 59.2251 390.265 69.1C372.237 72.5197 331.362 87.9578 333.815 90.411C334.224 90.8199 343.232 88.7879 353.825 85.8763C380.377 78.5909 419.914 78.6404 447.47 85.9754C475.744 93.521 519.06 116.059 514.339 120.792C513.435 121.696 505.072 122.477 495.742 122.551L478.767 122.663L505.431 132.835C540.755 146.303 580.577 170.798 597.118 189.247C606.163 199.345 604.589 192.493 593.611 173.995Z" fill="#EEEAD6"/>
<path d="M89.9895 101.326C101.611 98.1049 122.179 100.484 135.945 106.629L146.253 111.238L147.789 102.59C148.632 97.8323 153.662 87.6352 158.978 79.9162C178.195 51.9764 229.887 28.3113 282.26 23.5039C294.749 22.3516 301.117 25.2633 292.271 28.0758C287.872 29.4759 276.535 39.8217 279.41 39.8217C280.067 39.8217 285.555 37.418 291.602 34.4939C304.525 28.2493 338.523 19.1673 349.005 19.1673C362.994 19.1673 356.216 14.4467 337.73 11.3244C326.356 9.40392 307.077 8.71007 288.108 9.54021C251.272 11.1385 222.539 18.7089 188.132 35.8816C175.729 42.0767 165.582 46.3017 165.582 45.2858C165.582 41.7298 180.351 20.4311 187.128 14.1989C190.87 10.7544 193.93 6.90111 193.93 5.63732C193.93 0.0121922 154.17 18.0646 135.585 32.115C120.99 43.1547 112.54 59.4725 114.497 72.8414C115.501 79.656 114.609 80.6224 103.817 84.4634C92.2073 88.5893 80.5234 97.2252 80.5234 101.673C80.5234 102.925 84.7856 102.764 89.9895 101.326Z" fill="#EEEAD6"/>
</svg>
