<svg width="45" height="45" viewBox="0 0 45 45" fill="none" xmlns="http://www.w3.org/2000/svg">
<g clip-path="url(#clip0_1284_1947)">
<path d="M7.14563 12.257L29.4827 12.1023C29.5651 12.0803 29.6411 12.0455 29.7115 11.9979C29.783 11.9503 29.8443 11.8926 29.8956 11.8249C29.9478 11.7581 29.9871 11.6839 30.0146 11.6033C30.0411 11.5228 30.0549 11.4404 30.0549 11.3552C30.0549 11.2701 30.0411 11.1877 30.0146 11.1071C29.9871 11.0266 29.9478 10.9524 29.8956 10.8846C29.8443 10.8169 29.783 10.7601 29.7115 10.7125C29.6411 10.6649 29.5651 10.6301 29.4827 10.6082L7.13831 10.8013C7.08063 10.7858 7.02203 10.7766 6.96252 10.7748C6.90302 10.7729 6.84351 10.7775 6.78491 10.7885C6.72632 10.8004 6.67047 10.8178 6.61554 10.8425C6.56152 10.8672 6.51025 10.8975 6.46356 10.9332C6.41595 10.9698 6.37292 11.011 6.33539 11.0568C6.29785 11.1025 6.26489 11.152 6.23926 11.206C6.21271 11.2591 6.19257 11.3149 6.17883 11.3726C6.1651 11.4303 6.15869 11.4889 6.15869 11.5484C6.15869 11.6079 6.1651 11.6665 6.17883 11.7251C6.19257 11.7828 6.21271 11.8386 6.23926 11.8917C6.26489 11.9448 6.29785 11.9943 6.33539 12.041C6.37292 12.0867 6.41595 12.1279 6.46356 12.1636C6.51025 12.2003 6.56152 12.2305 6.61554 12.2543C6.67047 12.279 6.72632 12.2973 6.78491 12.3083C6.84351 12.3202 6.90302 12.3248 6.96252 12.322C7.02203 12.3202 7.08063 12.311 7.13831 12.2955L7.14563 12.257Z" fill="#850F16"/>
<path d="M7.14557 19.3185L29.4826 19.1482C29.565 19.1262 29.641 19.0914 29.7115 19.0438C29.7829 18.9962 29.8442 18.9385 29.8955 18.8708C29.9477 18.804 29.9871 18.7298 30.0145 18.6492C30.0411 18.5687 30.0548 18.4863 30.0548 18.4011C30.0548 18.316 30.0411 18.2336 30.0145 18.153C29.9871 18.0724 29.9477 17.9983 29.8955 17.9305C29.8442 17.8628 29.7829 17.806 29.7115 17.7584C29.641 17.7108 29.565 17.676 29.4826 17.6541L7.12268 17.8088C7.04028 17.8307 6.96338 17.8655 6.89288 17.9131C6.82239 17.9608 6.76105 18.0184 6.70978 18.0853C6.65759 18.153 6.61822 18.2272 6.59076 18.3077C6.56329 18.3883 6.54956 18.4707 6.54956 18.5558C6.54956 18.641 6.56329 18.7234 6.59076 18.804C6.61822 18.8845 6.65759 18.9587 6.70978 19.0264C6.76105 19.0933 6.82239 19.1509 6.89288 19.1985C6.96338 19.2462 7.04028 19.2809 7.12268 19.3029L7.14557 19.3185Z" fill="#850F16"/>
<mask id="mask0_1284_1947" style="mask-type:luminance" maskUnits="userSpaceOnUse" x="0" y="2" width="45" height="41">
<path d="M0 2.34375H45V42.5043H0V2.34375Z" fill="white"/>
</mask>
<g mask="url(#mask0_1284_1947)">
<path d="M41.2601 10.2595H36.6055V6.10938C36.6046 5.86493 36.5799 5.62323 36.5323 5.38336C36.4838 5.14349 36.4133 4.91095 36.319 4.68573C36.2247 4.45959 36.1102 4.24536 35.9738 4.04211C35.8374 3.83887 35.6827 3.65118 35.5096 3.47815C35.3366 3.30511 35.148 3.15131 34.9448 3.01489C34.7415 2.87939 34.5264 2.76404 34.3002 2.67065C34.0741 2.57727 33.8406 2.50586 33.6008 2.45825C33.3609 2.40973 33.1183 2.38593 32.8729 2.38501H3.73169C3.48724 2.38593 3.24463 2.40973 3.00476 2.45825C2.76398 2.50586 2.53143 2.57727 2.3053 2.67065C2.07916 2.76404 1.86401 2.87939 1.66077 3.01489C1.4566 3.15131 1.26892 3.30511 1.09497 3.47815C0.921936 3.65118 0.767212 3.83887 0.631714 4.04211C0.4953 4.24536 0.379944 4.45959 0.28656 4.68573C0.192261 4.91095 0.12085 5.14349 0.0732422 5.38336C0.0247193 5.62323 0.000915527 5.86493 0 6.10938V23.5383C0 23.7479 0.0183105 23.9558 0.0540162 24.1627C0.0897216 24.3696 0.141907 24.5719 0.211487 24.7697C0.281982 24.9674 0.367126 25.1578 0.469665 25.3409C0.571289 25.524 0.687561 25.698 0.818482 25.8619C0.950318 26.0248 1.09406 26.1768 1.25061 26.316C1.40717 26.4561 1.57471 26.5815 1.75323 26.6923C1.93085 26.804 2.1167 26.9001 2.31079 26.9797C2.50488 27.0603 2.70447 27.1235 2.90955 27.1702L2.25037 33.7437C2.23846 33.8911 2.26685 34.0302 2.33551 34.1621C2.40417 34.293 2.50214 34.3964 2.63031 34.4715C2.74475 34.5402 2.86926 34.5731 3.00293 34.5722C3.16589 34.5695 3.31329 34.52 3.44513 34.4248L8.35602 30.7938V31.4283C8.35693 31.6718 8.38074 31.9135 8.42926 32.1525C8.47687 32.3914 8.54828 32.623 8.64166 32.8483C8.73596 33.0735 8.8504 33.2868 8.9859 33.4891C9.12231 33.6915 9.27704 33.8792 9.44916 34.0513C9.62219 34.2234 9.81079 34.3772 10.0131 34.5127C10.2164 34.6473 10.4315 34.7617 10.6567 34.8551C10.8829 34.9485 11.1154 35.0181 11.3544 35.0657C11.5942 35.1133 11.8359 35.1371 12.0804 35.1371H31.8649L41.5475 42.2993C41.6803 42.4 41.8304 42.4485 41.9971 42.4467C42.1289 42.4476 42.2498 42.4137 42.3624 42.346C42.4933 42.2755 42.5931 42.1747 42.6627 42.0438C42.7313 41.912 42.7579 41.7728 42.7423 41.6254L42.0831 35.0519C42.2882 35.0062 42.4878 34.9439 42.6819 34.8643C42.876 34.7846 43.0627 34.6894 43.2413 34.5786C43.4189 34.4678 43.5873 34.3433 43.7439 34.2042C43.9014 34.065 44.046 33.9139 44.1769 33.7501C44.3088 33.5862 44.426 33.4131 44.5285 33.23C44.6301 33.0469 44.7162 32.8565 44.7867 32.6588C44.8563 32.461 44.9094 32.2596 44.9451 32.0527C44.9808 31.8458 44.9991 31.6379 45 31.4283V13.9912C45 13.8694 44.9936 13.7476 44.9817 13.6259C44.9698 13.5041 44.9524 13.3832 44.9286 13.2633C44.9039 13.1434 44.8746 13.0253 44.8389 12.9081C44.8032 12.7909 44.762 12.6765 44.7153 12.5638C44.6686 12.4503 44.6164 12.3405 44.5587 12.2324C44.501 12.1244 44.4379 12.02 44.3701 11.9184C44.3015 11.8168 44.2291 11.7188 44.1513 11.6236C44.0735 11.5293 43.9911 11.4387 43.905 11.3526C43.8181 11.2665 43.7274 11.1841 43.6331 11.1063C43.5379 11.0294 43.4399 10.9562 43.3383 10.8884C43.2358 10.8207 43.1314 10.7575 43.0234 10.6998C42.9153 10.6431 42.8046 10.5909 42.691 10.5433C42.5784 10.4966 42.4631 10.4554 42.3459 10.4206C42.2287 10.3849 42.1097 10.3547 41.9897 10.3309C41.8698 10.3071 41.749 10.2897 41.6272 10.2778C41.5054 10.2659 41.3828 10.2595 41.2601 10.2595ZM4.29016 26.0157C4.14001 25.8536 3.95325 25.7712 3.73169 25.7685C3.58521 25.7685 3.43964 25.7538 3.2959 25.7255C3.15216 25.6971 3.01208 25.655 2.87659 25.5982C2.74109 25.5424 2.61292 25.4737 2.49023 25.3922C2.36847 25.3116 2.25586 25.2192 2.15149 25.1148C2.04803 25.0114 1.95557 24.8987 1.87408 24.777C1.7926 24.6552 1.72394 24.527 1.66718 24.3915C1.61133 24.257 1.56921 24.1169 1.53992 23.9731C1.51154 23.8294 1.4978 23.6848 1.4978 23.5383V6.10938C1.4978 5.96289 1.51154 5.81824 1.53992 5.6745C1.56921 5.53076 1.61133 5.3916 1.66718 5.2561C1.72394 5.12061 1.7926 4.99243 1.87408 4.87067C1.95557 4.7489 2.04803 4.63629 2.15149 4.53284C2.25586 4.42938 2.36847 4.33691 2.49023 4.25543C2.61292 4.17395 2.74109 4.10529 2.87659 4.04944C3.01208 3.99359 3.15216 3.95056 3.2959 3.92218C3.43964 3.8938 3.58521 3.87915 3.73169 3.87915H32.9123C33.0588 3.87915 33.2043 3.8938 33.3481 3.92218C33.4918 3.95056 33.6319 3.99359 33.7674 4.04944C33.9029 4.10529 34.0311 4.17395 34.1537 4.25543C34.2755 4.33691 34.3881 4.42938 34.4925 4.53284C34.5959 4.63629 34.6884 4.7489 34.7699 4.87067C34.8514 4.99243 34.92 5.12061 34.9768 5.2561C35.0327 5.3916 35.0748 5.53076 35.1041 5.6745C35.1324 5.81824 35.1462 5.96289 35.1462 6.10938V23.5383C35.1462 23.6848 35.1324 23.8294 35.1041 23.9731C35.0748 24.1169 35.0327 24.257 34.9768 24.3915C34.92 24.527 34.8514 24.6552 34.7699 24.777C34.6884 24.8987 34.5959 25.0114 34.4925 25.1148C34.3881 25.2192 34.2755 25.3116 34.1537 25.3922C34.0311 25.4737 33.9029 25.5424 33.7674 25.5982C33.6319 25.655 33.4918 25.6971 33.3481 25.7255C33.2043 25.7538 33.0588 25.7685 32.9123 25.7685H12.8796C12.7148 25.7676 12.5674 25.8161 12.4374 25.9159L3.87909 32.2101L4.4458 26.5888C4.47327 26.3764 4.422 26.186 4.29016 26.0157ZM43.5022 31.4356C43.5013 31.5821 43.4857 31.7267 43.4555 31.8696C43.4253 32.0124 43.3823 32.1506 43.3255 32.2852C43.2678 32.4198 43.1992 32.5471 43.1168 32.6679C43.0344 32.7888 42.9419 32.9005 42.8375 33.003C42.7341 33.1064 42.6205 33.198 42.4988 33.2786C42.377 33.3591 42.2479 33.4269 42.1133 33.4827C41.9778 33.5377 41.8387 33.5798 41.6949 33.6082C41.5512 33.6365 41.4066 33.6503 41.2601 33.6503C41.0422 33.6558 40.8582 33.7382 40.7098 33.8984C40.6357 33.9744 40.5826 34.0632 40.5487 34.163C40.5148 34.2637 40.5038 34.3662 40.5157 34.4715L41.1209 40.0928L32.5864 33.7894C32.4545 33.6942 32.3071 33.6457 32.1442 33.6429H12.0804C11.9339 33.6429 11.7902 33.6283 11.6464 33.5999C11.5036 33.5715 11.3644 33.5303 11.2299 33.4745C11.0953 33.4186 10.9671 33.3509 10.8453 33.2694C10.7245 33.1888 10.6119 33.0973 10.5084 32.9948C10.405 32.8922 10.3125 32.7796 10.231 32.6588C10.1505 32.5379 10.0818 32.4106 10.025 32.2761C9.96918 32.1424 9.92615 32.0032 9.89777 31.8604C9.86847 31.7176 9.85382 31.5739 9.85382 31.4283V29.686L13.1277 27.2626H32.9123C33.1567 27.2626 33.3994 27.2379 33.6392 27.1903C33.88 27.1418 34.1125 27.0713 34.3387 26.977C34.5648 26.8836 34.78 26.7683 34.9832 26.6328C35.1874 26.4963 35.3751 26.3425 35.549 26.1695C35.722 25.9965 35.8768 25.8088 36.0123 25.6055C36.1487 25.4023 36.264 25.1881 36.3574 24.9628C36.4517 24.7367 36.5231 24.5042 36.5707 24.2643C36.6193 24.0244 36.6431 23.7827 36.644 23.5383V11.7618H41.2994C41.4459 11.7618 41.5915 11.7756 41.7352 11.8049C41.8799 11.8333 42.02 11.8754 42.1555 11.9312C42.291 11.9871 42.42 12.0557 42.5427 12.1372C42.6645 12.2187 42.778 12.3112 42.8815 12.4146C42.9858 12.5181 43.0792 12.6307 43.1607 12.7524C43.2431 12.8742 43.3118 13.0024 43.3685 13.1379C43.4253 13.2734 43.4683 13.4125 43.4967 13.5563C43.526 13.7 43.5406 13.8447 43.5416 13.9912L43.5022 31.4356Z" fill="#850F16"/>
</g>
</g>
<defs>
<clipPath id="clip0_1284_1947">
<rect width="45" height="45" fill="white"/>
</clipPath>
</defs>
</svg>
