<svg width="893" height="106" viewBox="0 0 893 106" fill="none" xmlns="http://www.w3.org/2000/svg">
<g filter="url(#filter0_d_1284_1882)">
<path d="M9 17C9 10.3726 14.3726 5 21 5H872.119C882.498 5 887.982 17.285 881.052 25.012L823.654 89.012C821.378 91.55 818.13 93 814.721 93H21C14.3726 93 9 87.6274 9 81V17Z" fill="url(#paint0_linear_1284_1882)" fill-opacity="0.85" shape-rendering="crispEdges"/>
<path d="M21 5.5H872.119C882.066 5.5 887.321 17.2731 880.68 24.6782L823.282 88.6782C821.101 91.1104 817.988 92.5 814.721 92.5H21C14.6487 92.5 9.5 87.3513 9.5 81V17C9.5 10.6487 14.6487 5.5 21 5.5Z" stroke="#850F16" shape-rendering="crispEdges"/>
</g>
<defs>
<filter id="filter0_d_1284_1882" x="0.6" y="0.6" width="891.942" height="104.8" filterUnits="userSpaceOnUse" color-interpolation-filters="sRGB">
<feFlood flood-opacity="0" result="BackgroundImageFix"/>
<feColorMatrix in="SourceAlpha" type="matrix" values="0 0 0 0 0 0 0 0 0 0 0 0 0 0 0 0 0 0 127 0" result="hardAlpha"/>
<feOffset dy="4"/>
<feGaussianBlur stdDeviation="4.2"/>
<feComposite in2="hardAlpha" operator="out"/>
<feColorMatrix type="matrix" values="0 0 0 0 0.419608 0 0 0 0 0.435294 0 0 0 0 0.427451 0 0 0 1 0"/>
<feBlend mode="normal" in2="BackgroundImageFix" result="effect1_dropShadow_1284_1882"/>
<feBlend mode="normal" in="SourceGraphic" in2="effect1_dropShadow_1284_1882" result="shape"/>
</filter>
<linearGradient id="paint0_linear_1284_1882" x1="454" y1="5" x2="454" y2="93" gradientUnits="userSpaceOnUse">
<stop stop-color="#C2B182"/>
<stop offset="1" stop-color="#C2B182"/>
</linearGradient>
</defs>
</svg>
