<svg width="857" height="106" viewBox="0 0 857 106" fill="none" xmlns="http://www.w3.org/2000/svg">
<g filter="url(#filter0_d_1284_1882)">
<path d="M9 17C9 10.3726 14.3726 5 21 5H835.861C846.122 5 851.65 17.0414 844.962 24.8222L789.95 88.8222C787.67 91.4743 784.347 93 780.85 93H21C14.3726 93 9 87.6274 9 81V17Z" fill="url(#paint0_linear_1284_1882)" fill-opacity="0.85" shape-rendering="crispEdges"/>
<path d="M21 5.5H835.862C845.694 5.5 850.992 17.0397 844.582 24.4962L789.571 88.4962C787.386 91.0379 784.201 92.5 780.85 92.5H21C14.6487 92.5 9.5 87.3513 9.5 81V17C9.5 10.6487 14.6487 5.5 21 5.5Z" stroke="#850F16" shape-rendering="crispEdges"/>
</g>
<defs>
<filter id="filter0_d_1284_1882" x="0.6" y="0.6" width="855.685" height="104.8" filterUnits="userSpaceOnUse" color-interpolation-filters="sRGB">
<feFlood flood-opacity="0" result="BackgroundImageFix"/>
<feColorMatrix in="SourceAlpha" type="matrix" values="0 0 0 0 0 0 0 0 0 0 0 0 0 0 0 0 0 0 127 0" result="hardAlpha"/>
<feOffset dy="4"/>
<feGaussianBlur stdDeviation="4.2"/>
<feComposite in2="hardAlpha" operator="out"/>
<feColorMatrix type="matrix" values="0 0 0 0 0.419608 0 0 0 0 0.435294 0 0 0 0 0.427451 0 0 0 1 0"/>
<feBlend mode="normal" in2="BackgroundImageFix" result="effect1_dropShadow_1284_1882"/>
<feBlend mode="normal" in="SourceGraphic" in2="effect1_dropShadow_1284_1882" result="shape"/>
</filter>
<linearGradient id="paint0_linear_1284_1882" x1="435.5" y1="5" x2="435.5" y2="93" gradientUnits="userSpaceOnUse">
<stop stop-color="#C2B182"/>
<stop offset="1" stop-color="#C2B182"/>
</linearGradient>
</defs>
</svg>
