<svg width="45" height="45" viewBox="0 0 45 45" fill="none" xmlns="http://www.w3.org/2000/svg">
<g clip-path="url(#clip0_1284_1955)">
<path d="M22.4772 42.9647C20.8558 42.9647 19.3964 42.0052 18.7427 40.5165L16.8796 41.3332C17.8556 43.5561 20.0501 44.9999 22.4772 44.9999C24.9399 44.9999 27.1436 43.5387 28.1013 41.27L26.2299 40.4717C25.5845 41.9869 24.116 42.9647 22.4772 42.9647Z" fill="#850F16"/>
<mask id="mask0_1284_1955" style="mask-type:luminance" maskUnits="userSpaceOnUse" x="2" y="0" width="41" height="39">
<path d="M2.10938 0H42.8677V38.9062H2.10938V0Z" fill="white"/>
</mask>
<g mask="url(#mask0_1284_1955)">
<path d="M42.4676 36.0699L37.0934 31.5865C36.8609 31.3897 36.7263 31.1114 36.7263 30.8065V18.5055C36.7263 14.5696 35.1589 10.903 32.3107 8.18567C30.6362 6.5899 28.6477 5.46014 26.498 4.83301C26.5429 4.51898 26.5612 4.20495 26.5338 3.87353C26.3818 2.13403 25.101 0.654539 23.4173 0.278258C22.1813 -6.27786e-05 20.9097 0.286497 19.9337 1.06653C18.966 1.84656 18.4112 3.00378 18.4112 4.24982C18.4112 4.45581 18.4469 4.64441 18.4734 4.84125C12.5262 6.61645 8.22778 12.2296 8.22778 18.8818V30.7983C8.22778 31.1031 8.0932 31.3897 7.86066 31.5783L2.48651 36.0607C2.25397 36.2585 2.11938 36.545 2.11938 36.8408V37.8634C2.11938 38.4283 2.57623 38.8851 3.1402 38.8851H41.8139C42.3779 38.8851 42.8347 38.4283 42.8347 37.8634V36.8408C42.8256 36.545 42.691 36.2585 42.4676 36.0699ZM20.4345 4.24982C20.4345 3.62176 20.7128 3.04864 21.1962 2.65405C21.6888 2.25946 22.3068 2.11572 22.9604 2.25946C23.7753 2.44806 24.4207 3.19147 24.5013 4.04382C24.5104 4.16009 24.4921 4.27637 24.483 4.39355C23.5967 4.26813 22.7004 4.22326 21.7785 4.25897C21.3308 4.27637 20.8831 4.32123 20.4437 4.39355C20.4528 4.33954 20.4345 4.29468 20.4345 4.24982ZM4.72589 36.8499L9.15887 33.1466C9.85742 32.5643 10.2603 31.7129 10.2603 30.7983V18.8818C10.2603 12.1307 15.3652 6.59906 21.8856 6.29419C25.2712 6.13306 28.4683 7.33423 30.9045 9.656C33.3407 11.9869 34.6847 15.1254 34.6847 18.5055V30.7983C34.6847 31.7037 35.0875 32.5643 35.7861 33.1466L40.2191 36.8499H4.72589Z" fill="#850F16"/>
</g>
</g>
<defs>
<clipPath id="clip0_1284_1955">
<rect width="45" height="45" fill="white"/>
</clipPath>
</defs>
</svg>
