<svg width="53" height="53" viewBox="0 0 53 53" fill="none" xmlns="http://www.w3.org/2000/svg">
<g clip-path="url(#clip0_1284_1932)" filter="url(#filter0_dd_1284_1932)">
<mask id="mask0_1284_1932" style="mask-type:luminance" maskUnits="userSpaceOnUse" x="4" y="0" width="45" height="45">
<path d="M4 0.46875H49V44.5715H4V0.46875Z" fill="white"/>
</mask>
<g mask="url(#mask0_1284_1932)">
<path d="M43.4519 7.9256C42.627 7.54291 41.8836 7.01282 41.2583 6.37012C40.6412 5.73657 40.1359 4.9895 39.7751 4.16278C39.6717 3.89087 39.408 3.69678 39.0995 3.69678H13.9133C13.6332 3.69678 13.3668 3.86157 13.2496 4.1344C12.8889 4.97211 12.378 5.72833 11.7536 6.3692C11.1384 7.00092 10.4105 7.52368 9.60303 7.90454C9.33203 8.00891 9.13977 8.27258 9.13977 8.57928L9.14252 13.8866C9.14252 14.1594 9.29724 14.4194 9.56183 14.5412C10.3858 14.9239 11.1292 15.454 11.7545 16.0967C12.3725 16.7302 12.877 17.4773 13.2386 18.304C13.342 18.5768 13.6048 18.77 13.9142 18.77H39.1004C39.3806 18.77 39.647 18.6061 39.7642 18.3324C40.1249 17.4947 40.6357 16.7375 41.2601 16.0976C41.8745 15.4659 42.6023 14.9431 43.4098 14.5623C43.6808 14.4579 43.874 14.1942 43.874 13.8875L43.8712 8.5802C43.8712 8.30829 43.7165 8.04736 43.4519 7.9256ZM26.5055 17.3244C24.8255 17.3244 23.3021 16.6423 22.2016 15.54C21.1002 14.4387 20.4191 12.9161 20.4191 11.2343C20.4191 9.55249 21.1002 8.02905 22.2016 6.92767C23.3021 5.82629 24.8246 5.14423 26.5055 5.14423C28.1873 5.14423 29.7089 5.82629 30.8103 6.92767C31.9108 8.02905 32.5928 9.55157 32.5928 11.2343C32.5928 12.9152 31.9108 14.4387 30.8103 15.54C29.7089 16.6423 28.1873 17.3244 26.5055 17.3244ZM12.7872 15.0923C12.1464 14.4341 11.4039 13.8747 10.5854 13.4417V9.02698C11.4039 8.59302 12.1464 8.03363 12.7872 7.37628C13.4254 6.72168 13.9628 5.96912 14.3729 5.14514H22.0707C21.7548 5.37585 21.4554 5.63037 21.1799 5.90594C19.8167 7.27008 18.9734 9.15424 18.9734 11.2352C18.9734 13.3162 19.8167 15.2004 21.1799 16.5645C21.4564 16.841 21.7548 17.0946 22.0707 17.3253H14.3729C13.9628 16.5004 13.4254 15.7479 12.7872 15.0923ZM42.4256 13.4407C41.608 13.8747 40.8646 14.4332 40.2247 15.0914C39.5875 15.746 39.05 16.4995 38.639 17.3244H30.9412C31.258 17.0937 31.5565 16.8392 31.832 16.5636C33.1953 15.1995 34.0394 13.3144 34.0394 11.2343C34.0394 9.15332 33.1953 7.26825 31.832 5.90503C31.5555 5.62762 31.258 5.37494 30.9412 5.14423H38.639C39.051 5.96729 39.5875 6.72076 40.2247 7.37537C40.8665 8.03363 41.608 8.59302 42.4274 9.02606V13.4407H42.4256ZM25.4764 9.14325C25.3217 9.29614 25.2256 9.51038 25.2256 9.74384C25.2256 9.97729 25.3226 10.1906 25.4764 10.3453C25.6302 10.4991 25.8445 10.5962 26.077 10.5962H26.9349C27.5208 10.5962 28.0536 10.8361 28.4382 11.2206C28.8227 11.6051 29.0626 12.1379 29.0626 12.7239C29.0626 13.3098 28.8227 13.8427 28.4382 14.2272L28.3942 14.2665C28.0591 14.5842 27.6234 14.793 27.1436 14.8415V15.4631C27.1436 15.8147 26.858 16.1013 26.5055 16.1013C26.1539 16.1013 25.8683 15.8147 25.8683 15.4631V14.8415C25.3647 14.7921 24.9116 14.5659 24.5737 14.2272C24.1883 13.8427 23.9493 13.3098 23.9493 12.7239C23.9493 12.3714 24.235 12.0858 24.5865 12.0858C24.939 12.0858 25.2247 12.3714 25.2247 12.7239C25.2247 12.9564 25.3217 13.1707 25.4755 13.3245C25.6293 13.4792 25.8436 13.5753 26.0761 13.5753H26.934C27.1555 13.5753 27.3578 13.4911 27.5089 13.3519L27.5345 13.3245C27.6893 13.1707 27.7854 12.9564 27.7854 12.7239C27.7854 12.4913 27.6893 12.2771 27.5345 12.1233C27.3807 11.9686 27.1665 11.8724 26.934 11.8724H26.0761C25.4902 11.8724 24.9583 11.6326 24.5737 11.2471C24.1883 10.8626 23.9493 10.3307 23.9493 9.74384C23.9493 9.15973 24.1883 8.62872 24.5737 8.24329V8.24054C24.9116 7.90179 25.3647 7.67566 25.8683 7.62622V7.00549C25.8683 6.65302 26.1539 6.36737 26.5055 6.36737C26.858 6.36737 27.1436 6.65302 27.1436 7.00549V7.62622C27.6462 7.67566 28.0985 7.90179 28.4363 8.24054C28.8218 8.62598 29.0607 9.1579 29.0607 9.74384C29.0607 10.0963 28.7751 10.382 28.4235 10.382C28.071 10.382 27.7854 10.0963 27.7854 9.74384C27.7854 9.51038 27.6893 9.29706 27.5345 9.14325C27.3807 8.98944 27.1665 8.8924 26.934 8.8924H26.5128C26.5101 8.8924 26.5082 8.8924 26.5046 8.8924C26.5018 8.8924 26.5 8.8924 26.4963 8.8924H26.0752C25.8445 8.89331 25.6302 8.98944 25.4764 9.14325ZM48.9963 21.4525C48.9963 20.5782 48.6649 19.7039 48.0039 19.041L48.0002 19.0374C47.83 18.8689 47.6459 18.7197 47.4509 18.5933C47.3969 18.5585 47.342 18.5247 47.2861 18.4935V1.20105C47.2861 0.80188 46.962 0.477783 46.5629 0.477783H6.44812C6.04895 0.477783 5.72577 0.80188 5.72577 1.20105V21.2685C5.72577 21.6677 6.04895 21.9918 6.44812 21.9918H33.8965L31.2314 24.6578L15.5961 24.6706C15.5768 24.6688 15.5576 24.6651 15.5384 24.6642C15.0587 24.6303 14.5679 24.6999 14.1056 24.872C13.679 25.0313 13.2789 25.2767 12.9346 25.609L12.8898 25.6511L4.22339 34.3212C4.06958 34.4759 4 34.6837 4.01465 34.886V43.7557L4.01099 43.8198C4.01099 44.2189 4.33508 44.543 4.73425 44.543L12.627 44.5412C12.8156 44.5412 13.0042 44.467 13.1461 44.3196L15.1108 42.2734L33.1843 37.7224C33.7665 37.5411 34.3571 37.2005 34.9329 36.7693C35.4822 36.3573 36.0187 35.8629 36.5214 35.3466C36.525 35.3429 36.5269 35.3401 36.5305 35.3365C36.5516 35.3191 36.5726 35.3017 36.5919 35.2816L48.0021 23.8649C48.6658 23.2012 48.9991 22.325 48.9991 21.4516H48.9963V21.4525ZM7.17139 1.92432H45.8396V20.5443H7.17139V1.92432ZM40.2247 21.9918L34.8972 27.322C34.7535 26.6793 34.4294 26.1061 33.9789 25.6575C33.6906 25.3682 33.35 25.1311 32.9737 24.9599L35.9409 21.9918H40.2247ZM47.5535 21.4525C47.5535 21.9579 47.3621 22.4623 46.9813 22.845L35.571 34.2598C35.5601 34.2708 35.5491 34.2818 35.539 34.2946C35.5216 34.3093 35.5042 34.3248 35.4886 34.3413C35.0291 34.8146 34.5475 35.2596 34.0705 35.6176C33.632 35.9462 33.198 36.2026 32.7943 36.3344L14.5615 40.923C14.4114 40.9606 14.2841 41.043 14.1898 41.1519L12.3221 43.0965H5.45386V35.1351L13.9426 26.6399C14.1395 26.4522 14.3665 26.313 14.6073 26.2224C14.8719 26.1245 15.1575 26.0851 15.4413 26.1043C15.4551 26.1061 15.4697 26.1043 15.4835 26.1061C15.5128 26.1089 15.543 26.1125 15.5732 26.1125L31.5702 26.0988L31.572 26.1025C32.1131 26.1025 32.6047 26.3231 32.9581 26.6774V26.6811C33.3161 27.0381 33.5386 27.5307 33.5395 28.0681L33.5358 28.0709C33.5358 28.6101 33.3143 29.1027 32.9581 29.4588C32.602 29.8159 32.1104 30.0374 31.5702 30.0374H20.4355C20.0364 30.0374 19.7123 30.3615 19.7123 30.7607C19.7123 31.1608 20.0364 31.4849 20.4355 31.4849H31.5702C32.5095 31.4849 33.3628 31.1003 33.9808 30.4814C34.2115 30.2516 34.4092 29.988 34.5667 29.6987L42.2681 21.9927H46.562C46.9611 21.9927 47.2852 21.6686 47.2852 21.2694V20.4583C47.4637 20.764 47.5562 21.1092 47.5562 21.4534H47.5535V21.4525Z" fill="#850F16"/>
</g>
</g>
<defs>
<filter id="filter0_dd_1284_1932" x="0" y="0" width="53" height="53" filterUnits="userSpaceOnUse" color-interpolation-filters="sRGB">
<feFlood flood-opacity="0" result="BackgroundImageFix"/>
<feColorMatrix in="SourceAlpha" type="matrix" values="0 0 0 0 0 0 0 0 0 0 0 0 0 0 0 0 0 0 127 0" result="hardAlpha"/>
<feOffset dy="4"/>
<feGaussianBlur stdDeviation="2"/>
<feComposite in2="hardAlpha" operator="out"/>
<feColorMatrix type="matrix" values="0 0 0 0 0 0 0 0 0 0 0 0 0 0 0 0 0 0 0.25 0"/>
<feBlend mode="normal" in2="BackgroundImageFix" result="effect1_dropShadow_1284_1932"/>
<feColorMatrix in="SourceAlpha" type="matrix" values="0 0 0 0 0 0 0 0 0 0 0 0 0 0 0 0 0 0 127 0" result="hardAlpha"/>
<feOffset dy="4"/>
<feGaussianBlur stdDeviation="2"/>
<feComposite in2="hardAlpha" operator="out"/>
<feColorMatrix type="matrix" values="0 0 0 0 0 0 0 0 0 0 0 0 0 0 0 0 0 0 0.25 0"/>
<feBlend mode="normal" in2="effect1_dropShadow_1284_1932" result="effect2_dropShadow_1284_1932"/>
<feBlend mode="normal" in="SourceGraphic" in2="effect2_dropShadow_1284_1932" result="shape"/>
</filter>
<clipPath id="clip0_1284_1932">
<rect width="45" height="45" fill="white" transform="translate(4)"/>
</clipPath>
</defs>
</svg>
