<svg width="45" height="53" viewBox="0 0 45 53" fill="none" xmlns="http://www.w3.org/2000/svg">
<g clip-path="url(#clip0_1502_311)" filter="url(#filter0_d_1502_311)">
<path d="M37.2656 12.6562H23.9062C22.7463 12.6562 21.7969 13.6057 21.7969 14.7656V30.2344C21.7969 31.3943 22.7463 32.3438 23.9062 32.3438H37.2656C38.4256 32.3438 39.375 31.3943 39.375 30.2344V14.7656C39.375 13.6057 38.4256 12.6562 37.2656 12.6562ZM37.9688 30.2344C37.9688 30.6207 37.652 30.9375 37.2656 30.9375H23.9062C23.5199 30.9375 23.2031 30.6207 23.2031 30.2344V14.7656C23.2031 14.3793 23.5199 14.0625 23.9062 14.0625H37.2656C37.652 14.0625 37.9688 14.3793 37.9688 14.7656V30.2344Z" fill="#850F16"/>
<path d="M12.6562 15.3635C12.6562 14.5899 12.0236 13.9573 11.25 13.9573H9.84375C9.07013 13.9573 8.4375 14.5899 8.4375 15.3635V16.7698C8.4375 17.5434 9.07013 18.176 9.84375 18.176H11.25C12.0236 18.176 12.6562 17.5434 12.6562 16.7698V15.3635ZM9.84375 16.7698V15.3635H11.25V16.7698H9.84375Z" fill="#850F16"/>
<path d="M19.6875 14.4141H14.7656C14.3793 14.4141 14.0625 14.7308 14.0625 15.1172C14.0625 15.5035 14.3793 15.8203 14.7656 15.8203H19.6875C20.0739 15.8203 20.3906 15.5035 20.3906 15.1172C20.3906 14.7308 20.0739 14.4141 19.6875 14.4141Z" fill="#850F16"/>
<path d="M14.7656 17.9297H18.2812C18.6676 17.9297 18.9844 17.6129 18.9844 17.2266C18.9844 16.8402 18.6676 16.5234 18.2812 16.5234H14.7656C14.3793 16.5234 14.0625 16.8402 14.0625 17.2266C14.0625 17.6129 14.3793 17.9297 14.7656 17.9297Z" fill="#850F16"/>
<path d="M12.6562 20.9885C12.6562 20.2149 12.0236 19.5823 11.25 19.5823H9.84375C9.07013 19.5823 8.4375 20.2149 8.4375 20.9885V22.3948C8.4375 23.1684 9.07013 23.801 9.84375 23.801H11.25C12.0236 23.801 12.6562 23.1684 12.6562 22.3948V20.9885ZM9.84375 22.3948V20.9885H11.25V22.3948H9.84375Z" fill="#850F16"/>
<path d="M14.7656 21.4453H19.6875C20.0739 21.4453 20.3906 21.1285 20.3906 20.7422C20.3906 20.3558 20.0739 20.0391 19.6875 20.0391H14.7656C14.3793 20.0391 14.0625 20.3558 14.0625 20.7422C14.0625 21.1285 14.3793 21.4453 14.7656 21.4453Z" fill="#850F16"/>
<path d="M14.7656 23.5547H18.2812C18.6676 23.5547 18.9844 23.2379 18.9844 22.8516C18.9844 22.4652 18.6676 22.1484 18.2812 22.1484H14.7656C14.3793 22.1484 14.0625 22.4652 14.0625 22.8516C14.0625 23.2379 14.3793 23.5547 14.7656 23.5547Z" fill="#850F16"/>
<path d="M12.6562 26.6135C12.6562 25.8399 12.0236 25.2073 11.25 25.2073H9.84375C9.07013 25.2073 8.4375 25.8399 8.4375 26.6135V28.0198C8.4375 28.7934 9.07013 29.426 9.84375 29.426H11.25C12.0236 29.426 12.6562 28.7934 12.6562 28.0198V26.6135ZM9.84375 28.0198V26.6135H11.25V28.0198H9.84375Z" fill="#850F16"/>
<path d="M14.7656 27.0703H19.6875C20.0739 27.0703 20.3906 26.7535 20.3906 26.3672C20.3906 25.9808 20.0739 25.6641 19.6875 25.6641H14.7656C14.3793 25.6641 14.0625 25.9808 14.0625 26.3672C14.0625 26.7535 14.3793 27.0703 14.7656 27.0703Z" fill="#850F16"/>
<path d="M14.7656 29.1797H18.2812C18.6676 29.1797 18.9844 28.8629 18.9844 28.4766C18.9844 28.0902 18.6676 27.7734 18.2812 27.7734H14.7656C14.3793 27.7734 14.0625 28.0902 14.0625 28.4766C14.0625 28.8629 14.3793 29.1797 14.7656 29.1797Z" fill="#850F16"/>
<path d="M12.6562 32.2385C12.6562 31.4649 12.0236 30.8323 11.25 30.8323H9.84375C9.07013 30.8323 8.4375 31.4649 8.4375 32.2385V33.6448C8.4375 34.4184 9.07013 35.051 9.84375 35.051H11.25C12.0236 35.051 12.6562 34.4184 12.6562 33.6448V32.2385ZM9.84375 33.6448V32.2385H11.25V33.6448H9.84375Z" fill="#850F16"/>
<path d="M14.7656 32.6953H19.6875C20.0739 32.6953 20.3906 32.3785 20.3906 31.9922C20.3906 31.6058 20.0739 31.2891 19.6875 31.2891H14.7656C14.3793 31.2891 14.0625 31.6058 14.0625 31.9922C14.0625 32.3785 14.3793 32.6953 14.7656 32.6953Z" fill="#850F16"/>
<path d="M14.7656 34.8047H18.2812C18.6676 34.8047 18.9844 34.4879 18.9844 34.1016C18.9844 33.7152 18.6676 33.3984 18.2812 33.3984H14.7656C14.3793 33.3984 14.0625 33.7152 14.0625 34.1016C14.0625 34.4879 14.3793 34.8047 14.7656 34.8047Z" fill="#850F16"/>
<path d="M11.25 36.4573H9.84375C9.07013 36.4573 8.4375 37.0899 8.4375 37.8635V39.2698C8.4375 40.0434 9.07013 40.676 9.84375 40.676H11.25C12.0236 40.676 12.6562 40.0434 12.6562 39.2698V37.8635C12.6562 37.0899 12.0236 36.4573 11.25 36.4573ZM9.84375 39.2698V37.8635H11.25V39.2698H9.84375Z" fill="#850F16"/>
<path d="M26.7188 36.9141H14.7656C14.3793 36.9141 14.0625 37.2308 14.0625 37.6172C14.0625 38.0035 14.3793 38.3203 14.7656 38.3203H26.7188C27.1051 38.3203 27.4219 38.0035 27.4219 37.6172C27.4219 37.2308 27.1051 36.9141 26.7188 36.9141Z" fill="#850F16"/>
<path d="M14.0625 39.7266C14.0625 40.1129 14.3793 40.4297 14.7656 40.4297H29.5312C29.9176 40.4297 30.2344 40.1129 30.2344 39.7266C30.2344 39.3402 29.9176 39.0234 29.5312 39.0234H14.7656C14.3793 39.0234 14.0625 39.3402 14.0625 39.7266Z" fill="#850F16"/>
<path d="M34.9805 18.1402L28.3009 25.3473L26.1915 23.0978C25.9104 22.8168 25.4884 22.7811 25.2073 23.0621C24.9262 23.3441 24.8905 23.7652 25.1716 24.0472L27.8083 26.8597C27.9493 26.9998 28.1251 27.0703 28.3356 27.0703C28.5471 27.0703 28.7229 26.9998 28.863 26.8597L36.07 19.1254C36.352 18.8434 36.3163 18.3865 36.0352 18.1402C35.7185 17.8592 35.2616 17.8592 34.9805 18.1402Z" fill="#850F16"/>
<path d="M33.0469 42.8906C33.0469 43.277 32.7301 43.5938 32.3438 43.5938H7.73438C7.34802 43.5938 7.03125 43.277 7.03125 42.8906V9.14062C7.03125 8.75427 7.34802 8.4375 7.73438 8.4375H11.9531V10.1953C11.9531 10.5817 12.2699 10.8984 12.6562 10.8984H27.4219C27.8082 10.8984 28.125 10.5817 28.125 10.1953V8.4375H32.3438C32.7301 8.4375 33.0469 8.75427 33.0469 9.14062V11.25H34.4531V9.14062C34.4531 7.98065 33.5037 7.03125 32.3438 7.03125H28.125V5.27344C28.125 4.88708 27.8082 4.57031 27.4219 4.57031H24.9261C24.7504 2.00409 22.641 0 20.0391 0C17.4371 0 15.3278 2.00409 15.152 4.57031H12.6562C12.2699 4.57031 11.9531 4.88708 11.9531 5.27344V7.03125H7.73438C6.5744 7.03125 5.625 7.98065 5.625 9.14062V42.8906C5.625 44.0506 6.5744 45 7.73438 45H32.3438C33.5037 45 34.4531 44.0506 34.4531 42.8906V33.75H33.0469V42.8906ZM20.0391 1.40625C21.8674 1.40625 23.3441 2.8125 23.5199 4.57031H16.5582C16.734 2.8125 18.2108 1.40625 20.0391 1.40625ZM13.3594 5.97656H26.7188V9.49219H13.3594V5.97656Z" fill="#850F16"/>
</g>
<defs>
<filter id="filter0_d_1502_311" x="-4" y="0" width="53" height="53" filterUnits="userSpaceOnUse" color-interpolation-filters="sRGB">
<feFlood flood-opacity="0" result="BackgroundImageFix"/>
<feColorMatrix in="SourceAlpha" type="matrix" values="0 0 0 0 0 0 0 0 0 0 0 0 0 0 0 0 0 0 127 0" result="hardAlpha"/>
<feOffset dy="4"/>
<feGaussianBlur stdDeviation="2"/>
<feComposite in2="hardAlpha" operator="out"/>
<feColorMatrix type="matrix" values="0 0 0 0 0 0 0 0 0 0 0 0 0 0 0 0 0 0 0.25 0"/>
<feBlend mode="normal" in2="BackgroundImageFix" result="effect1_dropShadow_1502_311"/>
<feBlend mode="normal" in="SourceGraphic" in2="effect1_dropShadow_1502_311" result="shape"/>
</filter>
<clipPath id="clip0_1502_311">
<rect width="45" height="45" fill="white"/>
</clipPath>
</defs>
</svg>
