<svg xmlns="http://www.w3.org/2000/svg" xmlns:xlink="http://www.w3.org/1999/xlink" width="1920" zoomAndPan="magnify" viewBox="0 0 1440 809.999993" height="1080" preserveAspectRatio="xMidYMid meet" version="1.0"><defs><filter x="0%" y="0%" width="100%" height="100%" id="dac06fd0f5"><feColorMatrix values="0 0 0 0 1 0 0 0 0 1 0 0 0 0 1 0 0 0 1 0" color-interpolation-filters="sRGB"/></filter><mask id="8bf24b645b"><g filter="url(#dac06fd0f5)"><rect x="-144" width="1728" fill="#000000" y="-80.999999" height="971.999992" fill-opacity="0.5"/></g></mask><clipPath id="b611b350c3"><path d="M 0 0 L 1440 0 L 1440 810 L 0 810 Z M 0 0 " clip-rule="nonzero"/></clipPath><clipPath id="11588e9493"><path d="M -444.007812 3551.984375 L -159.347656 -383.484375 L 1793.796875 -242.210938 L 1509.140625 3693.257812 Z M -444.007812 3551.984375 " clip-rule="nonzero"/></clipPath><clipPath id="7c1c914d46"><path d="M -444.007812 3551.984375 L -159.347656 -383.484375 L 1793.796875 -242.210938 L 1509.140625 3693.257812 Z M -444.007812 3551.984375 " clip-rule="nonzero"/></clipPath><clipPath id="1fbcd5074d"><rect x="0" width="1440" y="0" height="810"/></clipPath><mask id="fc328bb2de"><g filter="url(#dac06fd0f5)"><rect x="-144" width="1728" fill="#000000" y="-80.999999" height="971.999992" fill-opacity="0.73"/></g></mask><clipPath id="ddeffe357f"><path d="M 0 0 L 1440 0 L 1440 810 L 0 810 Z M 0 0 " clip-rule="nonzero"/></clipPath><clipPath id="6e7806c327"><path d="M -225.738281 2892.019531 L -10.761719 -133.351562 L 1490.703125 -26.664062 L 1275.726562 2998.710938 Z M -225.738281 2892.019531 " clip-rule="nonzero"/></clipPath><clipPath id="f23140be6e"><path d="M -225.738281 2892.019531 L -10.761719 -133.351562 L 1490.703125 -26.664062 L 1275.726562 2998.710938 Z M -225.738281 2892.019531 " clip-rule="nonzero"/></clipPath><clipPath id="2584d3245c"><rect x="0" width="1440" y="0" height="810"/></clipPath></defs><g mask="url(#8bf24b645b)"><g transform="matrix(1, 0, 0, 1, 0, 0.000000000000039746)"><g clip-path="url(#1fbcd5074d)"><g clip-path="url(#b611b350c3)"><g clip-path="url(#11588e9493)"><g clip-path="url(#7c1c914d46)"><path fill="#850f16" d="M -443.835938 3548.226562 L 1508.984375 3690.765625 C 1602.753906 2380.441406 1696.523438 1070.117188 1790.292969 -240.203125 L -250.9375 911.992188 C -315.238281 1790.738281 -379.539062 2669.484375 -443.835938 3548.226562 " fill-opacity="1" fill-rule="nonzero"/></g></g></g></g></g></g><g mask="url(#fc328bb2de)"><g transform="matrix(1, 0, 0, 1, 0, 0.000000000000039746)"><g clip-path="url(#2584d3245c)"><g clip-path="url(#ddeffe357f)"><g clip-path="url(#6e7806c327)"><g clip-path="url(#f23140be6e)"><path fill="#850f16" d="M -225.613281 2889.125 L 525.035156 2942.957031 L 1275.683594 2996.792969 C 1346.492188 1989.441406 1417.296875 982.085938 1488.105469 -25.265625 L -79.894531 862.429688 C -128.46875 1537.996094 -177.039062 2213.558594 -225.613281 2889.125 " fill-opacity="1" fill-rule="nonzero"/></g></g></g></g></g></g></svg>