<svg width="26" height="26" viewBox="0 0 26 26" fill="none" xmlns="http://www.w3.org/2000/svg">
<g clip-path="url(#clip0_1063_11333)">
<path d="M10.5366 0.0465245C4.69196 0.11053 0.00527687 4.90195 0.0698114 10.7466C0.133288 16.5906 4.92418 21.2773 10.7693 21.2133C12.9275 21.1895 15.0275 20.5061 16.7874 19.2545L22.832 25.2986C23.5244 25.9815 24.64 25.9746 25.3234 25.2816C25.9995 24.5961 25.9995 23.4932 25.3234 22.8071L19.2783 16.7631C22.6664 12.0002 21.5503 5.39231 16.7874 2.00425C14.9625 0.707739 12.7746 0.0221917 10.5366 0.0465245ZM10.4091 1.87835C15.2359 1.74346 19.2588 5.54624 19.3937 10.3742C19.3958 10.4593 19.3974 10.544 19.3974 10.6286C19.399 15.4576 15.4856 19.3736 10.6577 19.3762C5.82872 19.3783 1.91222 15.466 1.9101 10.6365C1.9101 10.6344 1.9101 10.6318 1.9101 10.6291C1.90481 5.89166 5.6732 2.01112 10.4091 1.87835Z" fill="white"/>
<path d="M8.29319 4.14501C8.77138 3.97362 9.29824 4.22224 9.47015 4.70096C9.64048 5.17597 9.3961 5.69966 8.92267 5.87527C6.92369 6.60261 5.59279 8.50267 5.59279 10.6297C5.59279 11.1385 5.18073 11.5506 4.67238 11.5506C4.16457 11.5506 3.7525 11.1385 3.7525 10.6297C3.7525 7.72879 5.56687 5.13683 8.29319 4.14501Z" fill="white"/>
</g>
<defs>
<clipPath id="clip0_1063_11333">
<rect width="26" height="26" fill="white"/>
</clipPath>
</defs>
</svg>
