<svg width="45" height="45" viewBox="0 0 45 45" fill="none" xmlns="http://www.w3.org/2000/svg">
<g clip-path="url(#clip0_1284_3062)">
<path d="M34.3158 16.7862C34.4092 16.7862 34.4989 16.7688 34.5849 16.7331C34.671 16.6974 34.747 16.6461 34.8129 16.5802C34.8788 16.5143 34.9301 16.4383 34.9658 16.3522C35.0015 16.2662 35.0189 16.1765 35.0189 16.0831V0.703125C35.0189 0.609741 35.0015 0.52002 34.9658 0.43396C34.9301 0.3479 34.8788 0.271912 34.8129 0.205994C34.747 0.140076 34.671 0.0888061 34.5849 0.0531005C34.4989 0.017395 34.4092 0 34.3158 0H10.5084C10.415 0 10.3253 0.017395 10.2392 0.0531005C10.1532 0.0888061 10.0772 0.140076 10.0113 0.205994C9.94535 0.271912 9.89408 0.3479 9.85837 0.43396C9.82267 0.52002 9.80527 0.609741 9.80527 0.703125V16.0831C9.80527 16.1765 9.82267 16.2662 9.85837 16.3522C9.89408 16.4383 9.94535 16.5143 10.0113 16.5802C10.0772 16.6461 10.1532 16.6974 10.2392 16.7331C10.3253 16.7688 10.415 16.7862 10.5084 16.7862H34.3158ZM11.2115 1.40625H33.6126V15.3799H11.2115V1.40625ZM31.4099 5.27435C31.3009 5.27435 31.1929 5.26337 31.0858 5.24231C30.9787 5.22034 30.8743 5.18921 30.7736 5.14709C30.672 5.10498 30.5768 5.05371 30.4852 4.99329C30.3946 4.93286 30.3103 4.86328 30.2334 4.78638C30.1565 4.70856 30.0869 4.62524 30.0265 4.53369C29.9661 4.44305 29.9139 4.34692 29.8727 4.24622C29.8306 4.14551 29.7986 4.04114 29.7775 3.93402C29.7564 3.8269 29.7455 3.71887 29.7455 3.60992C29.7455 3.51654 29.7271 3.42682 29.6914 3.34076C29.6557 3.2547 29.6054 3.1778 29.5395 3.11188C29.4735 3.04596 29.3976 2.99561 29.3115 2.9599C29.2254 2.92419 29.1357 2.9068 29.0423 2.9068H15.7818C15.6884 2.9068 15.5987 2.92419 15.5127 2.9599C15.4266 2.99561 15.3506 3.04596 15.2847 3.11188C15.2188 3.1778 15.1684 3.2547 15.1327 3.34076C15.097 3.42682 15.0787 3.51654 15.0787 3.60992C15.0787 3.71887 15.0677 3.8269 15.0467 3.93402C15.0256 4.04114 14.9936 4.14551 14.9514 4.24622C14.9093 4.34692 14.8581 4.44305 14.7976 4.53369C14.7372 4.62524 14.6676 4.70947 14.5907 4.78638C14.5138 4.86328 14.4296 4.93286 14.338 4.99329C14.2474 5.05371 14.1522 5.10498 14.0506 5.14709C13.9499 5.18921 13.8455 5.22125 13.7384 5.24231C13.6313 5.26337 13.5232 5.27435 13.4143 5.27435C13.3209 5.27435 13.2312 5.29266 13.1451 5.32837C13.0591 5.36407 12.9831 5.41443 12.9171 5.48035C12.8512 5.54626 12.8 5.62225 12.7643 5.70831C12.7285 5.79437 12.7112 5.88409 12.7112 5.97748V10.8087C12.7112 10.9021 12.7285 10.9918 12.7643 11.0779C12.8 11.1639 12.8512 11.2399 12.9171 11.3058C12.9831 11.3718 13.0591 11.423 13.1451 11.4587C13.2312 11.4944 13.3209 11.5118 13.4143 11.5118C13.5232 11.5118 13.6313 11.5228 13.7384 11.5439C13.8455 11.5659 13.9499 11.597 14.0506 11.6391C14.1513 11.6812 14.2474 11.7325 14.338 11.7929C14.4296 11.8542 14.5138 11.9229 14.5907 11.9998C14.6676 12.0776 14.7372 12.1619 14.7976 12.2525C14.8581 12.3431 14.9093 12.4393 14.9514 12.54C14.9936 12.6407 15.0247 12.7451 15.0467 12.8522C15.0677 12.9593 15.0787 13.0673 15.0787 13.1772C15.0787 13.2706 15.097 13.3603 15.1327 13.4464C15.1684 13.5324 15.2188 13.6084 15.2847 13.6743C15.3506 13.7402 15.4266 13.7906 15.5127 13.8263C15.5987 13.862 15.6884 13.8803 15.7818 13.8803H29.0423C29.1357 13.8803 29.2254 13.862 29.3115 13.8263C29.3976 13.7906 29.4735 13.7402 29.5395 13.6743C29.6054 13.6084 29.6557 13.5324 29.6914 13.4464C29.7271 13.3603 29.7455 13.2706 29.7455 13.1772C29.7455 13.0673 29.7564 12.9593 29.7775 12.8522C29.7986 12.7451 29.8306 12.6407 29.8727 12.54C29.9139 12.4393 29.9661 12.3431 30.0265 12.2525C30.0869 12.1619 30.1565 12.0776 30.2334 11.9998C30.3103 11.9229 30.3946 11.8542 30.4852 11.7929C30.5768 11.7325 30.672 11.6812 30.7736 11.6391C30.8743 11.597 30.9787 11.5659 31.0858 11.5439C31.1929 11.5228 31.3009 11.5118 31.4099 11.5118C31.5033 11.5118 31.593 11.4944 31.6791 11.4587C31.7651 11.423 31.8411 11.3718 31.907 11.3058C31.9729 11.2399 32.0242 11.1639 32.0599 11.0779C32.0956 10.9918 32.113 10.9021 32.113 10.8087V5.97748C32.113 5.88409 32.0956 5.79437 32.0599 5.70831C32.0242 5.62225 31.9729 5.54626 31.907 5.48035C31.8411 5.41443 31.7651 5.36407 31.6791 5.32837C31.593 5.29266 31.5033 5.27435 31.4099 5.27435ZM30.7068 10.1871C30.4294 10.253 30.1657 10.3555 29.9167 10.4947C29.6667 10.6339 29.4415 10.8041 29.2401 11.0065C29.0378 11.2079 28.8675 11.434 28.7283 11.683C28.5891 11.9321 28.4866 12.1957 28.4207 12.4741H16.4035C16.3376 12.1957 16.235 11.9321 16.0959 11.683C15.9567 11.434 15.7864 11.2079 15.5841 11.0065C15.3827 10.8041 15.1565 10.6339 14.9075 10.4947C14.6585 10.3555 14.3948 10.253 14.1174 10.1871V6.59912C14.3948 6.5332 14.6585 6.43066 14.9075 6.2915C15.1565 6.15234 15.3827 5.98206 15.5841 5.77972C15.7864 5.57831 15.9567 5.35309 16.0959 5.10315C16.235 4.85413 16.3376 4.59045 16.4035 4.31305H28.4207C28.4866 4.59045 28.5891 4.85413 28.7283 5.10315C28.8675 5.35309 29.0378 5.57831 29.2401 5.77972C29.4415 5.98206 29.6667 6.15234 29.9167 6.2915C30.1657 6.43066 30.4294 6.5332 30.7068 6.59912V10.1871ZM22.4121 5.8667C22.2464 5.8667 22.0816 5.88226 21.9195 5.91522C21.7566 5.94727 21.5982 5.99487 21.4453 6.05896C21.2924 6.12213 21.1468 6.19995 21.0086 6.29242C20.8703 6.38397 20.7431 6.48926 20.6259 6.60645C20.5087 6.72363 20.4034 6.85181 20.3119 6.98914C20.2194 7.12738 20.1416 7.27295 20.0784 7.42584C20.0143 7.57965 19.9667 7.73712 19.9338 7.90009C19.9017 8.06305 19.8852 8.22693 19.8852 8.39264C19.8852 8.55927 19.9017 8.72314 19.9338 8.88611C19.9667 9.04907 20.0143 9.20654 20.0775 9.36035C20.1416 9.51324 20.2194 9.65881 20.3109 9.79706C20.4034 9.93439 20.5078 10.0626 20.6259 10.1797C20.7431 10.2969 20.8703 10.4022 21.0086 10.4938C21.1459 10.5862 21.2915 10.6641 21.4453 10.7272C21.5982 10.7913 21.7566 10.8389 21.9186 10.871C22.0816 10.9039 22.2464 10.9204 22.4121 10.9204C22.5778 10.9204 22.7417 10.9039 22.9046 10.8719C23.0676 10.8389 23.2251 10.7913 23.3789 10.7281C23.5318 10.6641 23.6773 10.5862 23.8156 10.4947C23.9538 10.4022 24.0811 10.2979 24.1983 10.1797C24.3155 10.0626 24.4207 9.9353 24.5123 9.79706C24.6048 9.65973 24.6826 9.51416 24.7458 9.36035C24.8098 9.20746 24.8575 9.04907 24.8895 8.88611C24.9225 8.72406 24.9389 8.55927 24.9389 8.39355C24.938 8.22784 24.9225 8.06305 24.8895 7.901C24.8575 7.73804 24.8089 7.58057 24.7458 7.42676C24.6817 7.27386 24.6039 7.1283 24.5123 6.99005C24.4198 6.85272 24.3155 6.72455 24.1983 6.60736C24.0802 6.49017 23.9529 6.3858 23.8156 6.29333C23.6773 6.20087 23.5318 6.12305 23.3789 6.05988C23.2251 5.99579 23.0676 5.94818 22.9046 5.91522C22.7426 5.88318 22.5778 5.8667 22.4121 5.8667ZM22.4121 9.51416C22.3388 9.51416 22.2656 9.50684 22.1933 9.49219C22.1209 9.47845 22.0514 9.45648 21.9836 9.42902C21.915 9.40063 21.8509 9.36584 21.7895 9.32465C21.7282 9.28436 21.6714 9.23767 21.6202 9.18549C21.568 9.1333 21.5213 9.07745 21.4801 9.01611C21.4398 8.95477 21.405 8.88977 21.3766 8.82202C21.3492 8.75427 21.3272 8.68378 21.3134 8.61237C21.2988 8.54004 21.2915 8.4668 21.2915 8.39355C21.2915 8.3194 21.2988 8.24707 21.3134 8.17474C21.3272 8.10242 21.3492 8.03284 21.3766 7.96417C21.405 7.89642 21.4398 7.83234 21.481 7.771C21.5213 7.70966 21.568 7.65289 21.6202 7.60071C21.6723 7.54852 21.7282 7.50275 21.7895 7.46155C21.8509 7.42035 21.9159 7.38647 21.9836 7.35809C22.0514 7.32971 22.1219 7.30865 22.1933 7.29401C22.2656 7.28027 22.3388 7.27295 22.4121 7.27295C22.4853 7.27295 22.5586 7.28027 22.6309 7.29401C22.7032 7.30865 22.7728 7.32971 22.8405 7.35809C22.9092 7.38647 22.9733 7.42126 23.0346 7.46155C23.096 7.50275 23.1527 7.54944 23.204 7.60071C23.2562 7.65289 23.3029 7.70966 23.3441 7.771C23.3844 7.83234 23.4192 7.89642 23.4475 7.96509C23.475 8.03284 23.497 8.10242 23.5107 8.17474C23.5254 8.24707 23.5327 8.32031 23.5327 8.39355C23.5327 8.4668 23.5254 8.54004 23.5107 8.61237C23.4961 8.68378 23.475 8.75427 23.4466 8.82202C23.4182 8.88977 23.3844 8.95477 23.3432 9.0152C23.302 9.07654 23.2562 9.1333 23.204 9.18549C23.1518 9.23767 23.0951 9.28345 23.0337 9.32465C22.9733 9.36584 22.9083 9.39972 22.8405 9.4281C22.7728 9.45648 22.7023 9.47754 22.6309 9.49219C22.5586 9.50684 22.4853 9.51324 22.4121 9.51416ZM29.2483 8.39355C29.2483 8.48694 29.23 8.57666 29.1943 8.66272C29.1586 8.74878 29.1082 8.82477 29.0423 8.89069C28.9764 8.9566 28.9004 9.00787 28.8144 9.04358C28.7283 9.07928 28.6386 9.09668 28.5452 9.09668H26.1291C26.0357 9.09668 25.9469 9.07928 25.86 9.04358C25.7739 9.00787 25.6979 8.9566 25.632 8.89069C25.5661 8.82477 25.5157 8.74878 25.48 8.66272C25.4443 8.57666 25.426 8.48694 25.426 8.39355C25.426 8.30017 25.4443 8.21045 25.48 8.12439C25.5157 8.03833 25.5661 7.96234 25.632 7.89642C25.6979 7.83051 25.7739 7.77924 25.86 7.74353C25.9469 7.70782 26.0357 7.69043 26.1291 7.69043H28.5443C28.6377 7.69043 28.7274 7.70782 28.8134 7.74353C28.8995 7.77924 28.9764 7.83051 29.0423 7.89642C29.1082 7.96234 29.1586 8.03833 29.1943 8.12439C29.23 8.21045 29.2483 8.30017 29.2483 8.39355ZM19.3982 8.39355C19.3982 8.48694 19.3799 8.57666 19.3442 8.66272C19.3084 8.74878 19.2581 8.82477 19.1922 8.89069C19.1263 8.9566 19.0503 9.00787 18.9642 9.04358C18.8772 9.07928 18.7884 9.09668 18.695 9.09668H16.279C16.1856 9.09668 16.0959 9.07928 16.0098 9.04358C15.9237 9.00787 15.8478 8.9566 15.7818 8.89069C15.7159 8.82477 15.6656 8.74878 15.6299 8.66272C15.5941 8.57666 15.5758 8.48694 15.5758 8.39355C15.5758 8.30017 15.5941 8.21045 15.6299 8.12439C15.6656 8.03833 15.7159 7.96234 15.7818 7.89642C15.8478 7.83051 15.9237 7.77924 16.0098 7.74353C16.0959 7.70782 16.1856 7.69043 16.279 7.69043H18.695C18.7884 7.69043 18.8772 7.70782 18.9642 7.74353C19.0503 7.77924 19.1263 7.83051 19.1922 7.89642C19.2581 7.96234 19.3084 8.03833 19.3442 8.12439C19.3799 8.21045 19.3982 8.30017 19.3982 8.39355ZM38.5895 33.8205L43.1689 32.3364C43.2943 32.2952 43.4152 32.2421 43.5315 32.178C43.6468 32.113 43.7558 32.037 43.8565 31.951C43.9572 31.8649 44.0487 31.7697 44.1311 31.6653C44.2135 31.5619 44.284 31.4502 44.3445 31.3321C44.4049 31.214 44.4534 31.0913 44.4891 30.9631C44.5257 30.8359 44.5486 30.7059 44.5596 30.574C44.5706 30.4413 44.5678 30.3094 44.5523 30.1776C44.5367 30.0458 44.5093 29.9167 44.4681 29.7903L40.6357 17.959C40.5945 17.8336 40.5423 17.7118 40.4773 17.5964C40.4123 17.4802 40.3363 17.3721 40.2502 17.2714C40.1642 17.1707 40.0689 17.0792 39.9655 16.9968C39.8611 16.9144 39.7494 16.843 39.6313 16.7825C39.5132 16.7221 39.3905 16.6745 39.2633 16.6379C39.1351 16.6022 39.0051 16.5784 38.8733 16.5683C38.7405 16.5573 38.6087 16.5601 38.4768 16.5747C38.345 16.5903 38.2159 16.6187 38.0896 16.6589L33.511 18.143C33.3847 18.1842 33.2638 18.2373 33.1476 18.3014C33.0322 18.3664 32.9233 18.4424 32.8225 18.5284C32.7218 18.6145 32.6303 18.7097 32.5479 18.8141C32.4655 18.9175 32.3941 19.0292 32.3337 19.1473C32.2741 19.2654 32.2256 19.3881 32.189 19.5163C32.1533 19.6436 32.1295 19.7736 32.1194 19.9063C32.1084 20.0381 32.1112 20.1709 32.1267 20.3027C32.1414 20.4337 32.1698 20.5627 32.211 20.6891L32.5461 21.7245C31.658 22.0395 30.9173 22.1255 30.3415 21.9791C28.5278 20.8026 26.8524 20.322 25.3592 20.5508C25.3335 20.5545 25.3088 20.56 25.2841 20.5664C24.3905 20.8044 23.5153 21.1011 22.6602 21.4545C22.6172 21.4215 22.5714 21.394 22.5229 21.3721C21.4975 20.9143 20.4428 20.5408 19.3588 20.2505C19.3341 20.2441 19.3094 20.2386 19.2837 20.235C17.7905 20.0061 16.1151 20.4877 14.3023 21.6641C13.7814 21.796 13.1277 21.7383 12.3523 21.4948L12.6132 20.6891C12.6535 20.5627 12.6819 20.4337 12.6974 20.3018C12.7121 20.17 12.7148 20.0381 12.7038 19.9054C12.6938 19.7736 12.67 19.6436 12.6342 19.5154C12.5976 19.3881 12.55 19.2654 12.4896 19.1473C12.4292 19.0283 12.3578 18.9175 12.2754 18.8132C12.193 18.7097 12.1014 18.6145 12.0007 18.5275C11.9 18.4415 11.792 18.3664 11.6757 18.3014C11.5603 18.2364 11.4395 18.1842 11.3131 18.143L6.73459 16.6589C6.60825 16.6187 6.47916 16.5903 6.34732 16.5747C6.21549 16.5601 6.08365 16.5573 5.9509 16.5683C5.81906 16.5784 5.68906 16.6022 5.56089 16.6379C5.43363 16.6745 5.31095 16.7221 5.19284 16.7825C5.07474 16.843 4.96305 16.9144 4.85959 16.9968C4.75522 17.0792 4.66001 17.1707 4.57395 17.2714C4.48789 17.3721 4.4119 17.4802 4.3469 17.5964C4.28281 17.7118 4.22971 17.8336 4.18851 17.959L0.356112 29.7903C0.315829 29.9167 0.287448 30.0449 0.271884 30.1767C0.25632 30.3085 0.254489 30.4413 0.264559 30.5731C0.275546 30.705 0.29935 30.835 0.335055 30.9631C0.371676 31.0904 0.419284 31.214 0.479708 31.3321C0.540133 31.4502 0.611544 31.561 0.693942 31.6653C0.775424 31.7697 0.866977 31.8649 0.9686 31.951C1.06931 32.037 1.17734 32.1121 1.29361 32.1771C1.40897 32.2421 1.52982 32.2952 1.65616 32.3355L6.23563 33.8196C6.57071 33.9294 6.9122 33.9487 7.25736 33.8763C7.47342 34.3112 7.76181 34.6893 8.12436 35.0116C8.03739 35.1068 7.95774 35.2084 7.88632 35.3156L6.85544 36.8536C6.72635 37.045 6.62564 37.251 6.5524 37.4707C6.47916 37.6904 6.43705 37.9156 6.42514 38.1473C6.41324 38.378 6.43247 38.606 6.48282 38.8321C6.53318 39.0582 6.61283 39.2734 6.72177 39.4775C6.83072 39.6817 6.96439 39.8676 7.12369 40.0351C7.28299 40.2036 7.46244 40.3464 7.66019 40.4654C7.85886 40.5853 8.06943 40.676 8.2919 40.7373C8.51529 40.7996 8.74234 40.8307 8.97397 40.8307C8.98221 40.8307 8.99137 40.8298 8.99961 40.8298C8.97122 41.0889 8.98221 41.3452 9.03257 41.6006C9.08292 41.8561 9.16989 42.0978 9.29349 42.3267C9.41709 42.5555 9.57273 42.7597 9.75949 42.941C9.94535 43.1223 10.155 43.2715 10.3875 43.3887C10.6192 43.5068 10.8636 43.5864 11.12 43.6285C11.3772 43.6716 11.6336 43.6752 11.8918 43.6395C12.149 43.6029 12.3953 43.5297 12.6306 43.4189C12.8659 43.3072 13.0792 43.1635 13.2696 42.9877C13.309 43.0856 13.3539 43.1808 13.4051 43.2742C13.4555 43.3667 13.5122 43.4555 13.5745 43.5416C13.6358 43.6267 13.7036 43.7091 13.775 43.786C13.8473 43.8638 13.9242 43.9362 14.0048 44.0039C14.0863 44.0717 14.1714 44.1339 14.2602 44.1916C14.349 44.2493 14.4406 44.3005 14.5367 44.3463C14.6319 44.3921 14.729 44.4324 14.8297 44.4662C14.9295 44.4992 15.032 44.5267 15.1355 44.5477C15.2389 44.5688 15.3433 44.5834 15.4486 44.5917C15.5539 44.5999 15.6601 44.6017 15.7654 44.5963C15.8716 44.5917 15.9759 44.5798 16.0803 44.5615C16.1847 44.5441 16.2872 44.5193 16.3879 44.4882C16.4895 44.458 16.5884 44.4205 16.6845 44.3774C16.7816 44.3344 16.875 44.2859 16.9656 44.231C17.0562 44.176 17.1432 44.1165 17.2256 44.0506C17.3089 43.9856 17.3877 43.9151 17.4618 43.84C17.557 44.0149 17.6733 44.1742 17.8116 44.3188C17.9489 44.4626 18.1036 44.5853 18.2748 44.6878C18.446 44.7894 18.6273 44.8672 18.8196 44.9203C19.0118 44.9734 19.2077 45 19.4064 45.0009C19.5538 45.0009 19.6994 44.9863 19.8431 44.9579C20.1324 44.902 20.3998 44.7922 20.6451 44.6292C20.8905 44.4662 21.0946 44.2621 21.2585 44.0176L21.4343 43.754L23.1061 44.6429C23.4631 44.8343 23.8449 44.9295 24.2495 44.9304C24.4958 44.9295 24.7375 44.8938 24.9728 44.8215C25.0992 44.783 25.2228 44.7345 25.3418 44.6759C25.4608 44.6173 25.5743 44.5496 25.6823 44.4727C25.7895 44.3948 25.8911 44.3097 25.9854 44.2163C26.0788 44.1229 26.1648 44.0222 26.2426 43.9151C26.3205 43.808 26.3891 43.6945 26.4486 43.5754C26.5072 43.4573 26.5567 43.3347 26.596 43.2083C26.6354 43.0811 26.6647 42.952 26.683 42.821C26.7013 42.6892 26.7087 42.5574 26.7059 42.4246C26.8103 42.4411 26.9146 42.4521 27.0199 42.4567C27.1252 42.4622 27.2314 42.4603 27.3367 42.453C27.442 42.4466 27.5464 42.4329 27.6498 42.4146C27.7542 42.3953 27.8567 42.3706 27.9574 42.3395C28.0581 42.3093 28.157 42.2726 28.2541 42.2305C28.3511 42.1893 28.4454 42.1417 28.537 42.0895C28.6285 42.0364 28.7164 41.9797 28.8015 41.9165C28.8867 41.8542 28.9682 41.7874 29.0451 41.7151C29.1229 41.6437 29.1961 41.5677 29.2648 41.4871C29.3335 41.4075 29.3976 41.3242 29.4571 41.2363C29.5166 41.1493 29.5706 41.0587 29.62 40.9653C29.6686 40.8719 29.7125 40.7758 29.7509 40.6778C29.7885 40.5789 29.8214 40.4791 29.848 40.3766C29.8745 40.275 29.8956 40.1715 29.9112 40.0671C29.9258 39.9628 29.9359 39.8575 29.9386 39.7522C29.9423 39.6469 29.9395 39.5407 29.9304 39.4363C30.0357 39.4574 30.141 39.473 30.2472 39.4821C30.3543 39.4913 30.4605 39.494 30.5676 39.4913C30.6747 39.4876 30.7809 39.4785 30.8871 39.4638C30.9924 39.4482 31.0977 39.4272 31.2011 39.3997C31.3046 39.3723 31.4062 39.3393 31.5051 39.2999C31.6049 39.2615 31.7019 39.2166 31.7962 39.1672C31.8915 39.1168 31.9821 39.061 32.0709 39.0005C32.1588 38.9401 32.243 38.8751 32.3236 38.8046C32.4041 38.7341 32.4811 38.66 32.5534 38.5803C32.6248 38.5016 32.6925 38.4183 32.7548 38.3322C32.8171 38.2452 32.8747 38.1546 32.9269 38.0621C32.9791 37.9688 33.0258 37.8726 33.067 37.7737C33.1082 37.6749 33.1439 37.5742 33.1732 37.4716C33.2034 37.3682 33.2263 37.2647 33.2446 37.1585C33.262 37.0532 33.2739 36.947 33.2794 36.8399C33.2849 36.7337 33.284 36.6266 33.2776 36.5204C33.4286 36.5607 33.5824 36.5881 33.739 36.6028C33.8946 36.6174 34.0512 36.6193 34.2077 36.6074C34.3643 36.5955 34.519 36.5707 34.671 36.5332C34.8239 36.4957 34.9713 36.4453 35.1159 36.3831C35.2597 36.3208 35.397 36.2466 35.5288 36.1606C35.6598 36.0745 35.7834 35.9784 35.8987 35.8722C36.0141 35.7651 36.1194 35.6497 36.2146 35.5252C36.3107 35.4016 36.3958 35.2698 36.4691 35.1315C36.7419 34.6234 36.8371 34.0842 36.7556 33.5129C36.8847 33.6108 37.023 33.6914 37.1722 33.7546C37.3205 33.8187 37.4753 33.8644 37.6346 33.891C37.7939 33.9175 37.955 33.9249 38.1161 33.913C38.2773 33.9011 38.4347 33.8699 38.5885 33.8196L38.5895 33.8205ZM6.66867 32.482L2.08921 30.9979C2.0123 30.9723 1.94272 30.9338 1.88047 30.8807C1.81821 30.8276 1.76877 30.7645 1.73215 30.6921C1.69553 30.6198 1.67356 30.5429 1.66623 30.4614C1.65982 30.3799 1.66898 30.3012 1.6937 30.2234L5.5261 18.3929C5.55173 18.3151 5.59018 18.2455 5.64328 18.1833C5.69638 18.121 5.75864 18.0716 5.83188 18.035C5.90421 17.9974 5.98111 17.9755 6.06259 17.9691C6.14408 17.9626 6.22281 17.9718 6.30063 17.9974L10.8801 19.4806C10.9579 19.5062 11.0275 19.5456 11.0888 19.5978C11.1511 19.6509 11.2005 19.7141 11.2381 19.7864C11.2747 19.8587 11.2967 19.9365 11.3031 20.0171C11.3095 20.0986 11.3003 20.1782 11.2756 20.256L7.44321 32.0865C7.41849 32.1634 7.37912 32.2339 7.32602 32.2952C7.27292 32.3575 7.21067 32.4069 7.13742 32.4445C7.0651 32.4811 6.98819 32.5031 6.90671 32.5095C6.82523 32.5159 6.74649 32.5067 6.66867 32.482ZM8.33768 39.2313C8.27542 39.1891 8.21775 39.1406 8.16465 39.0875C8.11154 39.0335 8.06394 38.9758 8.02274 38.9127C7.98062 38.8504 7.94583 38.7836 7.91745 38.714C7.88816 38.6444 7.8671 38.5721 7.85245 38.4988C7.8378 38.4247 7.83048 38.3496 7.83048 38.2745C7.83048 38.1995 7.8378 38.1244 7.85245 38.0511C7.8671 37.977 7.88907 37.9047 7.91745 37.8351C7.94583 37.7655 7.98154 37.6996 8.02274 37.6364L9.05454 36.0983C9.09665 36.0361 9.14426 35.9784 9.19828 35.9253C9.25138 35.8731 9.30997 35.8255 9.37223 35.7843C9.4354 35.7431 9.50132 35.7083 9.5709 35.6799C9.64048 35.6516 9.71189 35.6305 9.78604 35.6158C9.85929 35.6012 9.93436 35.5948 10.0094 35.5948C10.0845 35.5948 10.1587 35.603 10.2319 35.6177C10.3061 35.6323 10.3775 35.6543 10.4471 35.6836C10.5166 35.712 10.5816 35.7477 10.6448 35.7898C10.7071 35.831 10.7647 35.8786 10.8178 35.9317C10.8709 35.9848 10.9186 36.0434 10.9598 36.1057C11.0019 36.1679 11.0367 36.2338 11.066 36.3034C11.0943 36.373 11.1163 36.4444 11.131 36.5176C11.1465 36.5918 11.1538 36.666 11.1538 36.741C11.1538 36.8161 11.1465 36.8912 11.1328 36.9644C11.1181 37.0386 11.0962 37.11 11.0678 37.1796C11.0394 37.2491 11.0046 37.3151 10.9634 37.3773L10.036 38.7607L9.93161 38.9163C9.8895 38.9795 9.84189 39.0372 9.78879 39.0903C9.73477 39.1434 9.6771 39.191 9.61392 39.2331C9.55167 39.2743 9.48484 39.31 9.41526 39.3384C9.34568 39.3677 9.27335 39.3887 9.20011 39.4034C9.12595 39.418 9.05088 39.4254 8.9758 39.4254C8.89981 39.4254 8.82566 39.418 8.7515 39.4025C8.67734 39.3878 8.60593 39.3658 8.53635 39.3375C8.46677 39.3082 8.39994 39.2734 8.33768 39.2313ZM11.7608 42.2342C11.6491 42.2552 11.5374 42.2607 11.4239 42.2498C11.3113 42.2379 11.2024 42.2104 11.098 42.1664C10.9936 42.1234 10.8975 42.0648 10.8096 41.9934C10.7226 41.9211 10.6466 41.8378 10.5844 41.7435C10.5212 41.6492 10.4736 41.5475 10.4406 41.4395C10.4077 41.3306 10.3912 41.2198 10.3912 41.1063C10.3912 40.9927 10.4077 40.882 10.4406 40.773C10.4736 40.665 10.5212 40.5634 10.5844 40.4691L11.6153 38.9301C11.7004 38.8037 11.8057 38.6984 11.933 38.6142C12.0602 38.53 12.1985 38.4732 12.3477 38.4448C12.4228 38.4302 12.4988 38.4229 12.5757 38.4229C12.8064 38.4219 13.0179 38.4869 13.2092 38.616C13.2724 38.6581 13.3301 38.7057 13.3832 38.7589C13.4363 38.8129 13.4839 38.8705 13.526 38.9337C13.5672 38.996 13.6029 39.0628 13.6313 39.1324C13.6606 39.202 13.6816 39.2743 13.6963 39.3475C13.7109 39.4217 13.7182 39.4968 13.7182 39.5718C13.7182 39.6478 13.7109 39.722 13.6963 39.7961C13.6816 39.8703 13.6596 39.9417 13.6303 40.0113C13.602 40.0809 13.5663 40.1477 13.5241 40.21L12.4933 41.748C12.4081 41.8753 12.3019 41.9806 12.1756 42.0648C12.0483 42.149 11.9101 42.2049 11.7608 42.2342ZM15.8651 43.1689C15.7544 43.1909 15.6418 43.1964 15.5291 43.1845C15.4165 43.1735 15.3076 43.1461 15.2032 43.1021C15.0988 43.0582 15.0027 43.0005 14.9148 42.9282C14.8269 42.8568 14.7519 42.7734 14.6896 42.6791C14.6264 42.5848 14.5788 42.4832 14.5459 42.3743C14.5129 42.2662 14.4964 42.1545 14.4964 42.0419C14.4964 41.9284 14.5129 41.8167 14.5459 41.7087C14.5779 41.5997 14.6264 41.499 14.6887 41.4038L15.7205 39.8657C15.7626 39.8044 15.8102 39.7467 15.8642 39.6936C15.9173 39.6414 15.9759 39.5938 16.0382 39.5526C16.1014 39.5114 16.1673 39.4766 16.2369 39.4482C16.3064 39.4199 16.3778 39.3979 16.452 39.3842C16.5252 39.3695 16.6003 39.3622 16.6754 39.3631C16.7505 39.3631 16.8246 39.3704 16.8988 39.386C16.972 39.4006 17.0434 39.4226 17.113 39.451C17.1826 39.4803 17.2485 39.516 17.3108 39.5572C17.373 39.5993 17.4307 39.6469 17.4838 39.7C17.5369 39.7531 17.5845 39.8108 17.6257 39.873C17.6678 39.9362 17.7035 40.0021 17.7319 40.0717C17.7603 40.1404 17.7823 40.2118 17.7969 40.2859C17.8125 40.3592 17.8198 40.4343 17.8198 40.5093C17.8198 40.5844 17.8125 40.6586 17.7987 40.7327C17.7841 40.806 17.7621 40.8783 17.7337 40.9479C17.7054 41.0175 17.6706 41.0834 17.6294 41.1456L16.5976 42.6837C16.5133 42.8101 16.4071 42.9163 16.2799 42.9996C16.1535 43.0838 16.0153 43.1406 15.8651 43.1689ZM19.5703 43.5782C19.4092 43.6093 19.2526 43.5938 19.1015 43.5306C18.9496 43.4674 18.8287 43.3667 18.7372 43.2303C18.6465 43.0939 18.6007 42.9428 18.6007 42.7789C18.6007 42.6151 18.6456 42.464 18.7372 42.3276L19.5822 41.0669C19.7076 40.8801 19.8806 40.7657 20.1013 40.7236C20.1544 40.7126 20.2084 40.7071 20.2633 40.7071C20.4126 40.7089 20.5517 40.7483 20.679 40.8252C20.8072 40.903 20.906 41.0083 20.9765 41.1401C21.0461 41.272 21.0782 41.413 21.0708 41.5631C21.0626 41.7123 21.0177 41.8488 20.9353 41.9742L20.0903 43.2339C19.9649 43.4216 19.7918 43.5361 19.5703 43.5782ZM35.2276 34.4705C35.1846 34.5511 35.1343 34.6271 35.0766 34.6976C35.0189 34.7681 34.9539 34.8331 34.8834 34.8907C34.8129 34.9484 34.7378 34.9997 34.6573 35.0427C34.5767 35.0858 34.4925 35.1205 34.4055 35.1471C34.3185 35.1746 34.2288 35.192 34.1382 35.2011C34.0475 35.2103 33.956 35.2112 33.8653 35.202C33.7747 35.1929 33.685 35.1755 33.598 35.1498C33.5101 35.1233 33.4259 35.0885 33.3453 35.0464L31.8008 34.2242H31.7999L28.1012 32.2559C28.0188 32.2119 27.9309 32.1854 27.8384 32.1771C27.745 32.168 27.6544 32.1771 27.5656 32.2046C27.4759 32.2311 27.3953 32.2751 27.3239 32.3337C27.2516 32.3932 27.1939 32.4646 27.1499 32.5461C27.106 32.6285 27.0794 32.7164 27.0712 32.8088C27.062 32.9022 27.0712 32.9929 27.0987 33.0826C27.1252 33.1714 27.1692 33.252 27.2287 33.3243C27.2873 33.3957 27.3587 33.4534 27.4411 33.4973L31.1398 35.4648C31.2195 35.5087 31.2945 35.5591 31.3641 35.6168C31.4346 35.6754 31.4978 35.7394 31.5555 35.8099C31.6122 35.8804 31.6626 35.9555 31.7056 36.0361C31.7477 36.1166 31.7825 36.2 31.8081 36.2869C31.8347 36.3739 31.8521 36.4627 31.8612 36.5533C31.8695 36.644 31.8695 36.7346 31.8612 36.8253C31.8521 36.9159 31.8347 37.0038 31.8081 37.0908C31.7816 37.1786 31.7477 37.262 31.7047 37.3425C31.6617 37.4222 31.6122 37.4982 31.5545 37.5687C31.4969 37.6382 31.4337 37.7032 31.3632 37.7609C31.2936 37.8186 31.2185 37.8699 31.138 37.9129C31.0583 37.9559 30.975 37.9907 30.888 38.0182C30.8011 38.0447 30.7123 38.063 30.6225 38.0731C30.5319 38.0823 30.4413 38.0832 30.3506 38.075C30.26 38.0667 30.1712 38.0493 30.0842 38.0237C29.9972 37.999 29.913 37.9651 29.8324 37.923L26.1337 35.9555C26.0513 35.9116 25.9634 35.885 25.8709 35.8759C25.7785 35.8667 25.6869 35.8759 25.5981 35.9033C25.5093 35.9308 25.4287 35.9738 25.3564 36.0333C25.2841 36.0928 25.2264 36.1633 25.1825 36.2457C25.1394 36.3281 25.1129 36.416 25.1037 36.5085C25.0946 36.601 25.1037 36.6925 25.1312 36.7813C25.1587 36.871 25.2017 36.9516 25.2612 37.023C25.3207 37.0953 25.3912 37.153 25.4736 37.197L27.7963 38.432L27.7972 38.4329C27.8778 38.476 27.9538 38.5263 28.0243 38.584C28.0948 38.6417 28.1598 38.7057 28.2174 38.7762C28.276 38.8467 28.3264 38.9227 28.3694 39.0033C28.4134 39.0839 28.4482 39.1672 28.4747 39.2551C28.5013 39.342 28.5196 39.4318 28.5287 39.5224C28.5379 39.613 28.5379 39.7046 28.5287 39.7952C28.5205 39.8859 28.5031 39.9756 28.4765 40.0626C28.45 40.1505 28.4152 40.2347 28.3722 40.3152C28.3291 40.3958 28.2788 40.4718 28.2211 40.5423C28.1634 40.6128 28.0993 40.6778 28.0288 40.7355C27.9583 40.7941 27.8833 40.8444 27.8027 40.8875C27.7221 40.9314 27.6379 40.9662 27.5509 40.9927C27.463 41.0193 27.3742 41.0376 27.2827 41.0468C27.1921 41.0559 27.1014 41.0559 27.0099 41.0468C26.9192 41.0385 26.8304 41.0211 26.7425 40.9946C26.6546 40.968 26.5713 40.9332 26.4908 40.8902L23.1097 39.0921C23.0282 39.0491 22.9403 39.0225 22.8479 39.0134C22.7545 39.0051 22.6639 39.0143 22.575 39.0408C22.4853 39.0683 22.4048 39.1113 22.3333 39.1708C22.261 39.2303 22.2033 39.3008 22.1594 39.3832C22.1164 39.4656 22.0898 39.5535 22.0807 39.646C22.0715 39.7385 22.0807 39.83 22.1081 39.9188C22.1356 40.0076 22.1786 40.0882 22.2381 40.1605C22.2967 40.2319 22.3672 40.2905 22.4496 40.3345L24.7476 41.5567C24.808 41.5887 24.8648 41.6272 24.9179 41.6702C24.971 41.7142 25.0195 41.7618 25.0625 41.8149C25.1065 41.868 25.144 41.9247 25.177 41.9852C25.209 42.0456 25.2356 42.1088 25.2548 42.1738C25.2749 42.2397 25.2887 42.3065 25.2951 42.3752C25.3024 42.4429 25.3024 42.5116 25.2951 42.5793C25.2887 42.648 25.2759 42.7148 25.2557 42.7808C25.2356 42.8458 25.2099 42.9089 25.1779 42.9694C25.1458 43.0298 25.1074 43.0865 25.0644 43.1396C25.0213 43.1927 24.9728 43.2413 24.9197 43.2852C24.8666 43.3282 24.8098 43.3667 24.7494 43.3987C24.6899 43.4317 24.6267 43.4583 24.5608 43.4775C24.4958 43.4976 24.4281 43.5114 24.3603 43.5187C24.2917 43.5251 24.2239 43.5251 24.1552 43.5187C24.0875 43.5123 24.0207 43.4995 23.9547 43.4793C23.8888 43.4601 23.8257 43.4335 23.7652 43.4015L22.2116 42.5757C22.2693 42.4686 22.3178 42.3569 22.3572 42.2424C22.3965 42.1271 22.4258 42.009 22.446 41.889C22.4661 41.7691 22.4762 41.6483 22.4762 41.5265C22.4762 41.4056 22.467 41.2848 22.4469 41.1639C22.4276 41.044 22.3983 40.9268 22.359 40.8115C22.3196 40.6961 22.272 40.5853 22.2143 40.4773C22.1576 40.3702 22.0916 40.2686 22.0175 40.1715C21.9433 40.0754 21.8619 39.9857 21.773 39.9023C21.6842 39.819 21.589 39.744 21.4883 39.6762C21.3867 39.6085 21.2814 39.5499 21.1697 39.4995C21.0589 39.4501 20.9454 39.4089 20.8273 39.3777C20.7101 39.3466 20.5911 39.3246 20.4693 39.3127C20.3485 39.3008 20.2276 39.2999 20.1059 39.3073C19.985 39.3155 19.8651 39.3338 19.7461 39.3613C19.628 39.3896 19.5126 39.4272 19.4 39.4739C19.2883 39.5206 19.1803 39.5764 19.0768 39.6405C18.89 39.1132 18.5632 38.6938 18.0972 38.3835C17.9791 38.3038 17.8546 38.2352 17.7246 38.1766C17.5946 38.118 17.4609 38.0713 17.3236 38.0347C17.1853 37.999 17.0453 37.9742 16.9034 37.9614C16.7624 37.9495 16.6195 37.9486 16.4776 37.9596C16.3357 37.9706 16.1957 37.9926 16.0574 38.0273C15.9192 38.0621 15.7846 38.107 15.6546 38.1638C15.5237 38.2214 15.3991 38.2883 15.2792 38.3661C15.1602 38.4439 15.0476 38.5309 14.9432 38.627C14.848 38.3871 14.7198 38.1674 14.5587 37.9669C14.3966 37.7655 14.209 37.5934 13.9956 37.4496C13.7814 37.3059 13.5516 37.197 13.3044 37.1237C13.0572 37.0496 12.8055 37.0139 12.5482 37.0166C12.5757 36.7575 12.5638 36.4993 12.5134 36.2439C12.4804 36.0764 12.431 35.9134 12.366 35.7559C12.3001 35.5984 12.2195 35.4483 12.1243 35.3073C12.0291 35.1654 11.9201 35.0354 11.7984 34.9155C11.6766 34.7955 11.5448 34.6893 11.401 34.5959C11.2582 34.5035 11.1072 34.4247 10.9488 34.3625C10.7895 34.2993 10.6265 34.2535 10.458 34.2233C10.2905 34.1931 10.1211 34.1803 9.94992 34.1849C9.77964 34.1885 9.61118 34.2096 9.44455 34.248C9.42258 34.2297 9.39969 34.2133 9.37589 34.1986C8.95749 33.9377 8.65262 33.5806 8.46036 33.1265C8.60227 32.9434 8.70938 32.7402 8.7808 32.5195L11.9192 22.8314C12.5024 23.0255 13.1012 23.1271 13.7155 23.1372C14.0854 23.1409 14.447 23.0896 14.8013 22.9843C14.8663 22.9651 14.9276 22.9358 14.9844 22.8983C16.517 21.8866 17.8793 21.4563 19.0356 21.6202C19.6875 21.796 20.3293 22.0047 20.9601 22.2473C18.6648 23.4457 16.6598 25.0159 14.9441 26.9559C14.8544 27.0575 14.7986 27.1747 14.7766 27.3074C14.7546 27.4411 14.7693 27.5702 14.8214 27.6947C15.2289 28.6661 16.3092 31.246 18.7408 30.4413L25.7629 28.1186C28.2065 28.8428 30.6015 29.7217 34.5758 32.5415C35.1819 32.9709 35.6186 33.7344 35.2276 34.4705ZM25.9478 26.7068C25.8078 26.6656 25.6677 26.6684 25.5295 26.7142L18.2995 29.1064C17.6156 29.3326 17.0315 29.1412 16.2973 27.5565C16.9217 26.8808 17.5909 26.2527 18.3041 25.6723C19.0173 25.0909 19.768 24.5627 20.5554 24.0875C21.3427 23.6115 22.1603 23.194 23.0063 22.8333C23.8531 22.4725 24.7201 22.1732 25.6082 21.9351C26.7645 21.7712 28.1268 22.2015 29.6603 23.2141C29.7171 23.2507 29.7775 23.28 29.8425 23.2993C30.715 23.5657 31.7697 23.4851 32.98 23.0621L35.7834 31.7166C35.6598 31.6003 35.5279 31.4923 35.3897 31.3943C31.1233 28.3676 28.5901 27.4805 25.9478 26.7068ZM37.381 32.0865L33.5486 20.256C33.5238 20.1782 33.5147 20.0986 33.5211 20.0171C33.5275 19.9356 33.5495 19.8587 33.5861 19.7864C33.6236 19.7141 33.6731 19.6509 33.7344 19.5978C33.7967 19.5447 33.8662 19.5062 33.9441 19.4806L38.5235 17.9974C38.6004 17.9718 38.6801 17.9626 38.7616 17.9691C38.8431 17.9755 38.92 17.9974 38.9923 18.0341C39.0655 18.0716 39.1278 18.121 39.1809 18.1833C39.234 18.2455 39.2733 18.3151 39.2981 18.3929L43.1305 30.2234C43.1552 30.3012 43.1643 30.3799 43.1579 30.4614C43.1506 30.5429 43.1296 30.6198 43.092 30.6921C43.0554 30.7645 43.006 30.8276 42.9437 30.8807C42.8814 30.9329 42.8119 30.9723 42.735 30.9979L38.1555 32.482C38.0777 32.5067 37.9989 32.5159 37.9175 32.5095C37.836 32.5031 37.7591 32.4811 37.6867 32.4445C37.6135 32.4069 37.5512 32.3575 37.4981 32.2952C37.445 32.2339 37.4057 32.1634 37.381 32.0865ZM8.29465 20.7623C8.29465 20.6689 8.31205 20.5792 8.34775 20.4932C8.38346 20.4071 8.43381 20.3311 8.49973 20.2652C8.56473 20.1993 8.64072 20.148 8.72678 20.1123C8.81284 20.0766 8.90256 20.0592 8.99594 20.0592H8.99961C9.09299 20.0592 9.18271 20.0775 9.26877 20.1132C9.35483 20.1489 9.43082 20.2002 9.49582 20.2661C9.56174 20.332 9.61209 20.408 9.6478 20.495C9.68351 20.5811 9.7009 20.6708 9.7009 20.7632C9.7009 20.8566 9.68259 20.9464 9.64688 21.0324C9.61118 21.1185 9.55991 21.1945 9.49399 21.2604C9.42807 21.3263 9.35208 21.3766 9.26602 21.4124C9.17997 21.4481 9.09024 21.4655 8.99686 21.4655C8.90348 21.4655 8.81467 21.4471 8.72861 21.4114C8.64255 21.3757 8.56656 21.3254 8.50064 21.2595C8.43473 21.1935 8.38346 21.1176 8.34775 21.0315C8.31296 20.9454 8.29465 20.8557 8.29465 20.7623ZM36.4938 20.6635C36.4947 20.7568 36.4764 20.8466 36.4407 20.9326C36.4059 21.0187 36.3546 21.0947 36.2887 21.1615C36.2228 21.2274 36.1468 21.2778 36.0608 21.3144C35.9747 21.3501 35.885 21.3684 35.7916 21.3684C35.6982 21.3684 35.6085 21.351 35.5224 21.3153C35.4364 21.2796 35.3595 21.2292 35.2936 21.1633C35.2276 21.0974 35.1764 21.0214 35.1407 20.9354C35.105 20.8493 35.0866 20.7596 35.0857 20.6662C35.0857 20.5728 35.1031 20.4831 35.1388 20.397C35.1736 20.311 35.2249 20.2341 35.2899 20.1682C35.3558 20.1022 35.4318 20.051 35.5179 20.0143C35.6039 19.9786 35.6936 19.9603 35.787 19.9603H35.7916C35.8841 19.9603 35.9738 19.9777 36.0598 20.0134C36.1459 20.0491 36.2228 20.1004 36.2887 20.1663C36.3546 20.2322 36.405 20.3082 36.4407 20.3943C36.4764 20.4803 36.4938 20.5701 36.4938 20.6635Z" fill="#850F16"/>
</g>
<defs>
<clipPath id="clip0_1284_3062">
<rect width="45" height="45" fill="white"/>
</clipPath>
</defs>
</svg>
