<svg width="741" height="196" viewBox="0 0 741 196" fill="none" xmlns="http://www.w3.org/2000/svg">
<g filter="url(#filter0_d_3860_284)">
<rect x="10" y="5.70325" width="720.916" height="176.297" rx="16" fill="#850F16"/>
<rect x="9.5" y="5.20325" width="721.916" height="177.297" rx="16.5" stroke="#850F16"/>
</g>
<g filter="url(#filter1_i_3860_284)">
<path d="M10 21C10 11.6112 17.6112 4 27 4L715 4C724.389 4 732 11.6112 732 21L732 129.768C732 129.768 695.9 145.961 538.464 122.211C381.028 98.461 401.083 84.4845 246.655 76.8699C92.2277 69.2554 10 115.734 10 115.734L10 21Z" fill="#511C21"/>
</g>
<g clip-path="url(#clip0_3860_284)">
<path d="M579.292 140.582C573.792 140.069 566.7 137.84 562.441 135.281L558.789 133.089L556.308 134.732C554.942 135.635 552.426 136.937 550.718 137.623C547.644 138.855 547.617 138.901 548.071 141.881C548.323 143.537 549.123 146.464 549.845 148.389L551.161 151.883L551.662 148.389C551.937 146.464 552.221 145.272 552.294 145.738C552.648 148.02 557.178 155.631 561.021 160.413C563.389 163.359 565.559 166.738 565.842 167.927C566.556 170.922 567.76 169.693 568.322 165.39C568.711 162.447 568.435 161.279 566.614 158.153C565.318 155.93 564.406 153.204 564.355 151.405C564.25 147.864 563.676 147.605 562.232 150.453C561.277 152.332 561.122 152.405 560.497 151.246C559.534 149.468 559.534 141.817 560.493 139.831L561.289 138.185L564.367 139.42C567.837 140.813 570.609 141.259 578.504 141.695C584.657 142.033 585.29 141.143 579.292 140.582Z" fill="#BB8A14"/>
<path d="M677.914 92.788L676.524 97.582C675.763 100.217 674.11 104.078 672.852 106.161C670.589 109.909 663.598 117.252 662.293 117.252C661.921 117.252 661.932 116.179 662.317 114.87C664.11 108.798 662.437 97.1154 658.741 89.9213C657.596 87.686 656.793 85.7525 656.964 85.6183C657.538 85.167 660.865 86.8931 664.494 89.5218L668.116 92.1475L667.51 89.3297C664.906 77.2075 651.766 65.009 639.678 63.4872C637.881 63.2616 636.413 62.8499 636.413 62.5693C636.413 61.2092 651.972 57.6686 660.477 57.0953C667.173 56.6409 667.258 55.787 660.64 55.4851L656.199 55.2807L660.228 54.7166C664.021 54.189 670.666 54.7166 674.773 55.8724C675.662 56.1224 674.932 55.665 673.158 54.8599C670.228 53.5272 668.986 53.3991 659.832 53.454C651.059 53.5089 648.944 53.7407 643.699 55.2136C635.625 57.4795 631.021 57.7906 621.876 56.6805L614.205 55.7443L610.234 57.4277C608.049 58.3517 604.505 60.3522 602.358 61.871C597.63 65.2164 597.37 64.6522 601.675 60.3827C606.057 56.0248 613.072 51.5968 620.055 48.7698C629.03 45.1408 627.834 44.848 614.652 47.4493C606.779 49.0046 596.52 52.9905 592.11 56.2078C588.659 58.7207 588.516 58.7634 585.166 58.0955C579.545 56.9824 575.659 58.2023 569.204 63.106C566.168 65.4116 562.379 68.8424 560.792 70.724C557.973 74.0633 552.252 83.6483 552.811 84.0905C552.966 84.2094 553.94 83.88 554.981 83.3524C556.017 82.8249 559.227 82.0747 562.115 81.6782C565.582 81.2025 568.532 80.3089 570.799 79.0494C574.634 76.9178 574.723 76.9635 573.019 80.1778C570.29 85.3134 562.224 92.6782 549.6 101.565L546.371 103.84L548.152 105.261C550.482 107.115 557.135 107.521 565.345 106.31C569.444 105.703 572.449 105.593 574.634 105.971C576.408 106.279 579.044 106.386 580.488 106.212C583.582 105.837 583.799 106.511 581.521 109.451C580.426 110.863 577.945 112.284 573.532 114.032C566.055 116.987 563.73 118.969 563.73 122.378C563.73 125.58 564.767 127.566 567.515 129.646C573.986 134.528 585.1 135.885 593.488 132.811C598.872 130.841 599.893 130.841 603.301 132.817C607.175 135.068 607.463 134.757 603.907 132.159C602.242 130.939 600.879 129.691 600.879 129.383C600.879 128.234 603.577 128.078 607.125 129.024C612.129 130.362 612.303 129.798 607.463 127.901C604.738 126.834 603.662 126.081 604.086 125.541C604.567 124.928 605.937 124.9 610.223 125.425C613.254 125.797 615.875 125.998 616.038 125.87C616.201 125.742 613.763 125.117 610.622 124.48C605.079 123.357 604.916 123.266 604.916 121.335C604.916 118.368 603.422 115.553 601.248 114.431C598.523 113.028 598.43 113.105 598.985 116.297C599.323 118.24 599.187 119.158 598.566 119.158C598.061 119.158 597.646 118.795 597.646 118.35C597.646 117.905 596.539 116.487 595.188 115.193C592.611 112.732 588.473 111.378 585.445 112.004C583.031 112.498 583.512 111.86 589.975 106.005C597.739 98.9726 601.768 97.3349 610.514 97.646C614.652 97.7954 617.33 98.1919 618.006 98.7622C618.875 99.5002 618.805 99.5795 617.59 99.2409C616.049 98.814 610.762 99.5703 606.838 100.778C604.629 101.461 604.901 101.574 612.187 103.016C626.507 105.856 631.957 105.807 636.503 102.797C639.383 100.888 642.022 96.8287 642.05 94.2548C642.077 91.3424 643.637 91.5925 645.458 94.8068C647.686 98.7286 647.868 104.999 645.873 108.991L644.441 111.848L646.028 110.262C647.911 108.387 650.559 102.297 651.378 97.9632C652.053 94.4165 652.678 94.8251 654.662 100.095C657.833 108.518 654.347 120.177 645.586 130.442C644.616 131.585 643.587 133.729 643.303 135.208C643.016 136.69 642.593 138.685 642.36 139.648C642.127 140.609 642.251 141.396 642.636 141.396C643.016 141.396 643.944 140.609 644.697 139.648C646.378 137.495 649.301 134.955 661.358 125.15C666.544 120.933 672.176 115.831 673.88 113.812C678.624 108.189 680.138 102.156 678.515 95.3283L677.914 92.788ZM575.643 96.1395C574.642 96.5268 572.297 97.582 570.422 98.4877L567.022 100.141L565.361 97.5759C563.606 94.8678 563.711 94.6177 566.176 95.6577C567.616 96.2615 572.356 95.7796 576.109 94.6482C578.139 94.0353 577.732 95.3405 575.643 96.1395ZM572.398 92.4708C572.251 92.4708 571.696 91.5224 571.16 90.3605C569.836 87.4816 569.906 87.3109 572.111 88.1007C573.582 88.6283 575.123 88.5429 578.66 87.7347C581.202 87.1523 583.43 86.7894 583.605 86.9296C583.885 87.1462 573.116 92.4708 572.398 92.4708ZM592.56 128.472C595.546 127.252 596.035 127.191 596.035 128.026C596.035 129.069 589.331 131.783 585.938 132.116C584.16 132.287 581.346 132.162 579.684 131.841C576.684 131.256 569.751 128.188 570.353 127.712C570.527 127.575 572.468 127.91 574.669 128.459C580.139 129.816 589.257 129.823 592.56 128.472ZM634.597 68.4063C637.166 67.3237 639.115 67.528 642.993 69.2693L646.506 70.8521L643.544 70.8582C641.914 70.8612 640.097 70.9954 639.507 71.157C638.913 71.3187 637.186 70.9283 635.66 70.2879C632.986 69.1656 632.951 69.1016 634.597 68.4063ZM640.248 82.7212C636.46 85.8074 631.386 87.3871 625.265 87.3871C622.167 87.3871 621.814 87.5182 622.683 88.3386C623.526 89.1376 623.378 89.3083 621.771 89.3876C618.173 89.5676 615.339 89.2016 610.809 87.9757C604.415 86.2465 602.082 86.4021 598.177 88.8174C593.531 91.6871 591.466 93.5778 589.133 97.0788C587.351 99.7502 586.342 100.732 586.342 99.7868C586.342 99.6161 587.782 96.4597 589.544 92.7666C593.15 85.2188 595.837 81.8124 603.006 75.701C607.824 71.5931 607.975 71.5199 608.484 73.1057C608.771 74.0023 608.79 75.0087 608.526 75.3442C608.258 75.6857 609.38 75.9541 611.127 75.9571C612.82 75.9632 616.111 76.3658 618.444 76.8537C623.219 77.854 623.685 77.7168 620.463 76.2529L618.239 75.2435L620.964 75.5973C622.466 75.7924 625.917 76.7348 628.638 77.6954C632.566 79.083 634.62 79.4184 638.63 79.3117C641.409 79.2385 643.68 79.3483 643.68 79.5526C643.68 79.757 642.135 81.1842 640.248 82.7212ZM652.061 79.1989C649.903 78.8634 642.873 74.6732 642.873 73.7279C642.873 73.551 644.782 73.4077 647.127 73.4077C651.071 73.4077 651.653 73.6181 655.201 76.2895C657.301 77.8723 659.025 79.3026 659.025 79.4642C659.025 79.8484 655.294 79.7051 652.061 79.1989Z" fill="#BB8A14"/>
<path d="M616.686 83.0993C615.281 84.5936 612.94 84.5052 612.42 82.9377C612.187 82.2393 611.348 81.666 610.553 81.666C608.635 81.666 609.334 83.9014 611.659 85.1822C614 86.4722 615.925 86.3502 617.916 84.7827C619.205 83.7672 619.391 83.2732 618.673 82.7181C617.959 82.1662 617.474 82.2576 616.686 83.0993Z" fill="white"/>
<mask id="mask0_3860_284" style="mask-type:luminance" maskUnits="userSpaceOnUse" x="540" y="107" width="13" height="22">
<path d="M540.715 107.691H552.042V128.77H540.715V107.691Z" fill="white"/>
</mask>
<g mask="url(#mask0_3860_284)">
<path d="M548.374 126.941C548.366 126.331 547.834 124.114 547.19 122.019C546.546 119.92 546.01 117.956 545.994 117.652C545.94 116.609 548.494 118.746 550.02 121.018L551.545 123.287L551.58 121.265C551.631 118.466 550.319 116.005 547.578 113.757C546.301 112.708 544.706 111.009 544.03 109.985L542.807 108.118L541.779 109.985C541.212 111.009 540.742 114.16 540.731 116.984C540.715 121.689 540.913 122.324 543.095 124.608C546.546 128.225 548.397 129.042 548.374 126.941Z" fill="#BB8A14"/>
</g>
<path d="M726.095 63.8593C724.224 61.38 721.06 57.7753 719.061 55.8449L715.428 52.3348L720.132 52.7678L724.841 53.1978L719.189 50.2184C700.246 40.2339 678.682 35.6107 662.386 38.0412C656.738 38.8829 643.932 42.6828 644.701 43.2866C644.829 43.3872 647.651 42.8871 650.97 42.1704C659.289 40.3772 671.676 40.3894 680.309 42.1948C689.167 44.052 702.738 49.5993 701.259 50.7642C700.976 50.9869 698.355 51.179 695.432 51.1973L690.114 51.2247L698.468 53.7285C709.535 57.0434 722.011 63.0725 727.193 67.6134C730.027 70.0988 729.534 68.4124 726.095 63.8593Z" fill="#74643E"/>
<path d="M568.311 45.9733C571.952 45.1804 578.396 45.7659 582.708 47.2785L585.938 48.413L586.419 46.2844C586.683 45.1133 588.259 42.6035 589.925 40.7036C595.945 33.8267 612.14 28.0019 628.549 26.8187C632.462 26.5351 634.457 27.2517 631.685 27.944C630.307 28.2886 626.755 30.835 627.656 30.835C627.862 30.835 629.581 30.2434 631.476 29.5237C635.524 27.9867 646.176 25.7513 649.46 25.7513C653.843 25.7513 651.719 24.5894 645.928 23.8209C642.364 23.3482 636.324 23.1774 630.381 23.3817C618.84 23.7752 609.838 25.6385 599.059 29.8652C595.173 31.39 591.994 32.43 591.994 32.1799C591.994 31.3047 596.621 26.0624 598.744 24.5284C599.916 23.6806 600.875 22.7322 600.875 22.4211C600.875 21.0366 588.419 25.4799 582.596 28.9382C578.023 31.6554 575.376 35.6717 575.989 38.9622C576.303 40.6395 576.024 40.8774 572.643 41.8228C569.006 42.8383 565.345 44.9639 565.345 46.0587C565.345 46.3667 566.68 46.3271 568.311 45.9733Z" fill="#74643E"/>
</g>
<defs>
<filter id="filter0_d_3860_284" x="0.6" y="0.303247" width="739.716" height="195.097" filterUnits="userSpaceOnUse" color-interpolation-filters="sRGB">
<feFlood flood-opacity="0" result="BackgroundImageFix"/>
<feColorMatrix in="SourceAlpha" type="matrix" values="0 0 0 0 0 0 0 0 0 0 0 0 0 0 0 0 0 0 127 0" result="hardAlpha"/>
<feOffset dy="4"/>
<feGaussianBlur stdDeviation="4.2"/>
<feComposite in2="hardAlpha" operator="out"/>
<feColorMatrix type="matrix" values="0 0 0 0 0.419608 0 0 0 0 0.435294 0 0 0 0 0.427451 0 0 0 1 0"/>
<feBlend mode="normal" in2="BackgroundImageFix" result="effect1_dropShadow_3860_284"/>
<feBlend mode="normal" in="SourceGraphic" in2="effect1_dropShadow_3860_284" result="shape"/>
</filter>
<filter id="filter1_i_3860_284" x="10" y="4" width="722" height="135.158" filterUnits="userSpaceOnUse" color-interpolation-filters="sRGB">
<feFlood flood-opacity="0" result="BackgroundImageFix"/>
<feBlend mode="normal" in="SourceGraphic" in2="BackgroundImageFix" result="shape"/>
<feColorMatrix in="SourceAlpha" type="matrix" values="0 0 0 0 0 0 0 0 0 0 0 0 0 0 0 0 0 0 127 0" result="hardAlpha"/>
<feOffset dy="4"/>
<feGaussianBlur stdDeviation="2"/>
<feComposite in2="hardAlpha" operator="arithmetic" k2="-1" k3="1"/>
<feColorMatrix type="matrix" values="0 0 0 0 0 0 0 0 0 0 0 0 0 0 0 0 0 0 0.25 0"/>
<feBlend mode="normal" in2="shape" result="effect1_innerShadow_3860_284"/>
</filter>
<clipPath id="clip0_3860_284">
<rect width="190.799" height="149.895" fill="white" transform="translate(540.117 21.0336)"/>
</clipPath>
</defs>
</svg>
